<?xml version="1.0" standalone="no"?>
<!DOCTYPE svg PUBLIC "-//W3C//DTD SVG 20010904//EN"
 "http://www.w3.org/TR/2001/REC-SVG-20010904/DTD/svg10.dtd">
<svg version="1.0" xmlns="http://www.w3.org/2000/svg"
 width="1024.000000pt" height="1024.000000pt" viewBox="0 0 1024.000000 1024.000000"
 preserveAspectRatio="xMidYMid meet">

<g transform="translate(0.000000,1024.000000) scale(0.100000,-0.100000)"
fill="#000000" stroke="none">
<path d="M0 5120 l0 -5120 5120 0 5120 0 0 5120 0 5120 -5120 0 -5120 0 0
-5120z m2539 3845 c1 -115 27 -308 47 -347 49 -98 127 -132 342 -150 72 -7
132 -15 132 -18 0 -4 -65 -12 -145 -19 -216 -18 -281 -44 -325 -130 -20 -40
-50 -232 -50 -323 0 -32 -4 -58 -10 -58 -5 0 -10 18 -10 41 0 41 -11 131 -32
249 -30 175 -65 194 -400 221 -165 14 -168 22 -8 33 202 14 308 47 359 112 40
51 61 161 77 399 8 125 22 119 23 -10z m2946 -84 c207 -32 313 -56 477 -105
205 -62 315 -105 525 -208 413 -202 882 -579 1115 -898 204 -279 424 -684 491
-905 9 -27 27 -88 42 -135 96 -315 153 -797 124 -1060 -5 -47 -10 -96 -11
-110 -3 -29 -48 -44 -48 -16 0 9 8 17 18 17 13 1 13 2 2 5 -12 4 -15 19 -13
72 3 94 -3 68 -17 -73 -15 -148 -61 -386 -100 -520 -68 -233 -163 -487 -208
-553 -7 -10 -23 10 -57 72 -27 47 -54 86 -61 86 -19 0 -48 -102 -32 -111 49
-28 85 -59 96 -83 8 -15 12 -29 10 -31 -2 -2 -41 -9 -87 -14 -112 -14 -152 -4
-191 51 -17 23 -30 45 -30 49 0 5 -18 35 -41 66 -106 150 -239 357 -236 367 2
6 26 23 52 39 36 21 54 26 65 20 8 -6 40 -55 70 -111 30 -55 71 -122 90 -148
19 -26 44 -62 55 -80 l21 -33 43 29 c41 26 46 27 67 13 l23 -15 -20 41 c-28
59 -24 112 15 200 39 85 105 305 129 426 24 120 36 249 43 465 16 481 -79 910
-292 1319 -119 226 -171 307 -333 511 -130 164 -222 259 -356 369 -229 187
-320 249 -499 340 -262 134 -492 217 -731 264 -444 88 -649 93 -1028 28 -317
-55 -432 -89 -816 -242 -22 -9 -23 -14 -18 -61 4 -28 8 -53 11 -55 2 -3 58 18
123 46 202 85 350 130 550 171 78 15 150 27 160 25 10 -2 26 -4 36 -4 10 -1
17 -9 17 -19 0 -10 11 -24 24 -32 33 -17 86 5 86 37 0 12 6 24 13 26 9 4 8 8
-3 16 -12 9 -10 11 11 11 25 0 27 -4 35 -62 10 -80 6 -573 -5 -615 -11 -39 4
-113 25 -130 13 -10 14 -25 5 -110 -22 -197 -31 -332 -31 -443 l0 -114 -67
-62 c-56 -52 -64 -63 -46 -64 12 0 25 5 28 11 4 6 13 8 21 5 8 -3 14 0 14 7 0
7 9 13 20 14 11 1 18 -2 15 -8 -4 -5 -2 -9 4 -9 5 0 11 4 13 8 2 4 17 18 35
30 l32 23 0 645 c0 355 3 702 7 770 l7 124 122 0 122 0 7 -122 c4 -68 6 -351
6 -630 -1 -279 1 -512 5 -518 3 -5 3 -15 -1 -21 -4 -6 -6 -138 -5 -292 0 -209
-2 -284 -12 -295 -31 -38 52 20 102 72 49 49 53 57 41 73 -13 17 -13 17 4 1
18 -16 22 -13 85 49 36 36 81 76 99 90 18 14 31 28 28 30 -2 2 -12 -2 -23 -11
-10 -8 -47 -38 -82 -68 l-64 -52 8 49 c10 69 7 174 -11 355 -10 96 -13 175 -8
210 10 74 7 283 -8 463 -9 115 -9 161 0 206 7 31 12 94 12 139 0 80 1 82 26
88 15 4 46 2 70 -3 42 -10 114 -9 162 2 16 4 21 2 17 -6 -5 -8 -1 -9 13 -5 20
7 100 -26 112 -45 3 -5 24 -11 45 -14 22 -3 58 -9 80 -12 22 -4 44 -6 48 -5 4
1 10 -5 14 -14 4 -11 -28 -50 -109 -132 -63 -65 -150 -158 -194 -207 -127
-145 -120 -135 -104 -146 12 -8 11 -9 -5 -7 -11 2 -20 -2 -20 -9 0 -6 -4 -15
-9 -20 -5 -5 -6 -3 -2 5 12 20 -2 14 -34 -15 -17 -15 -28 -33 -25 -40 2 -8 1
-12 -4 -9 -4 3 -16 -3 -26 -14 -10 -12 -13 -20 -7 -20 7 0 12 5 12 11 0 5 4 7
10 4 6 -4 2 -15 -10 -27 -22 -24 -25 -34 -10 -43 6 -3 10 1 10 9 0 17 15 21
24 7 4 -5 1 -11 -6 -13 -9 -3 -9 -6 0 -12 13 -8 68 44 328 313 304 314 346
347 393 308 9 -8 37 -21 64 -31 49 -18 59 -31 30 -39 -12 -3 -9 -5 8 -6 15 0
37 -10 50 -20 21 -17 22 -22 11 -41 -7 -11 -10 -26 -6 -32 5 -8 1 -9 -10 -5
-11 4 -16 2 -14 -6 3 -14 -155 -177 -172 -177 -5 0 -10 -6 -10 -13 0 -8 -19
-30 -42 -50 -24 -19 -65 -59 -93 -88 -27 -28 -105 -107 -173 -174 l-122 -122
11 -32 c10 -27 9 -39 -4 -67 -20 -41 -50 -50 -99 -30 l-36 16 -7 -33 c-4 -18
-30 -57 -59 -88 -28 -31 -55 -63 -61 -71 -5 -7 -16 -21 -23 -30 -18 -22 -6
-58 18 -58 29 0 50 11 50 26 0 7 6 11 13 8 7 -2 19 7 27 21 7 14 17 25 21 25
4 0 24 16 45 36 20 20 34 29 31 20 -4 -10 -1 -16 8 -16 8 0 15 4 15 8 0 11 54
10 61 -1 4 -5 10 0 13 11 5 14 12 19 24 15 14 -5 15 -3 5 8 -21 22 -15 55 13
74 31 20 43 12 25 -16 -20 -33 -9 -30 34 8 32 28 35 33 17 28 -22 -6 -23 -5
-17 17 4 12 13 28 21 34 8 6 14 15 14 19 0 15 53 92 71 104 15 9 17 8 12 -7
-10 -27 -55 -92 -63 -92 -12 0 -19 -26 -10 -40 6 -9 17 -4 41 21 19 19 58 55
88 82 53 47 53 47 37 72 -17 27 -14 45 8 45 8 0 11 -10 8 -30 -5 -32 2 -37 22
-17 28 27 73 63 104 85 17 13 32 31 33 40 0 11 3 12 6 5 2 -7 9 -13 15 -13 6
0 8 7 4 15 -3 9 3 24 14 35 11 11 20 29 20 40 0 11 6 20 13 20 6 0 1 9 -13 20
-21 17 -23 21 -10 30 13 9 28 12 46 9 4 0 10 5 15 12 6 10 11 10 23 0 12 -10
19 -11 30 -2 11 10 16 8 21 -8 7 -22 20 -27 29 -13 3 5 -4 18 -14 30 -11 12
-20 28 -20 35 0 19 48 50 66 43 8 -3 17 1 20 9 6 15 34 21 34 8 0 -3 -7 -15
-17 -25 -24 -27 -10 -22 22 8 24 22 27 29 16 45 -13 22 -2 52 27 68 14 9 15
12 3 20 -12 8 -10 16 13 45 28 37 40 43 51 26 3 -6 -7 -18 -24 -28 -17 -9 -31
-23 -31 -29 0 -19 62 -4 82 20 16 21 17 20 87 -36 39 -32 71 -60 71 -63 0 -18
-35 -62 -125 -154 -56 -58 -162 -170 -235 -250 -74 -80 -147 -159 -163 -176
-24 -27 -27 -35 -18 -53 13 -23 9 -26 -19 -11 -16 8 -36 -8 -137 -111 -65 -67
-215 -212 -333 -322 -118 -110 -264 -249 -325 -307 -60 -59 -136 -126 -167
-149 -32 -23 -65 -55 -73 -71 -18 -35 -23 -96 -9 -110 7 -7 71 50 181 159 95
93 195 188 225 211 29 23 87 73 128 111 41 37 84 75 95 83 11 8 16 18 12 23
-5 4 -14 1 -20 -8 -7 -8 -24 -23 -39 -33 -26 -17 -26 -17 -21 2 2 11 15 25 28
32 13 7 26 22 29 34 6 20 7 20 20 4 7 -10 16 -18 18 -18 3 0 23 17 45 38 21
20 76 72 121 115 78 75 94 97 72 97 -6 0 8 18 31 39 24 21 48 37 54 35 7 -3
51 33 98 80 64 63 87 92 87 111 0 26 23 35 36 14 10 -17 27 17 19 40 -3 11 -1
22 5 26 7 4 14 -2 17 -14 8 -30 28 -20 26 13 -1 17 3 26 13 26 8 0 17 1 21 3
14 5 108 102 108 112 0 5 16 27 37 47 25 27 35 44 31 58 -6 22 7 26 25 8 9 -9
12 -8 12 6 0 9 4 15 9 12 5 -4 29 22 54 56 25 35 61 78 82 97 l37 33 49 -48
c27 -27 49 -51 49 -54 0 -7 -124 -156 -203 -245 -74 -82 -421 -431 -563 -565
-56 -52 -159 -149 -230 -215 -71 -66 -151 -142 -179 -169 -27 -26 -60 -55 -72
-63 -13 -8 -20 -19 -17 -24 3 -5 -2 -9 -11 -9 -8 0 -30 -15 -48 -32 -18 -18
-55 -53 -83 -78 -27 -25 -92 -84 -144 -131 -52 -47 -117 -104 -144 -125 -63
-51 -116 -103 -116 -115 0 -10 53 -12 88 -3 12 4 22 12 22 19 0 8 9 17 20 20
13 4 20 14 18 24 -4 22 60 91 84 91 10 0 18 5 18 10 0 6 7 10 15 10 8 0 15 5
15 10 0 12 47 13 52 1 2 -5 9 -3 16 5 11 12 9 14 -13 14 -18 0 -25 5 -25 20 0
13 7 20 20 20 13 0 20 7 20 20 0 11 5 20 10 20 6 0 10 -5 10 -10 0 -6 8 -5 20
2 13 9 18 19 14 32 -5 15 -3 18 10 13 11 -5 16 -1 16 13 0 11 5 20 10 20 6 0
14 9 18 20 5 13 12 16 21 11 10 -7 11 -13 2 -30 -7 -12 -16 -19 -22 -16 -5 4
-9 -4 -9 -17 0 -13 -5 -29 -11 -35 -9 -9 -7 -16 6 -29 17 -17 17 -17 10 5 -6
19 -4 23 9 18 8 -3 18 -2 21 3 4 6 -1 10 -9 10 -9 0 -16 5 -16 11 0 6 9 9 19
6 24 -6 46 7 36 23 -6 9 -9 9 -16 -1 -4 -7 -11 -10 -15 -6 -4 4 0 15 9 24 12
13 19 14 30 5 11 -10 17 -9 27 3 10 12 10 15 -3 15 -22 0 -43 28 -30 41 15 15
53 1 46 -17 -3 -7 0 -14 6 -14 6 0 11 9 11 19 0 28 30 36 31 8 l2 -22 4 23 c2
12 11 22 19 22 8 0 30 16 50 35 20 21 29 35 20 35 -7 0 -16 -7 -20 -15 -3 -8
-12 -15 -21 -15 -8 0 -15 -7 -15 -16 0 -8 -5 -12 -10 -9 -6 4 -23 0 -39 -8
-27 -14 -30 -13 -35 6 -6 24 -7 23 22 31 13 5 22 3 22 -3 0 -19 22 -12 47 15
17 19 21 30 14 37 -6 6 -11 17 -11 24 0 11 4 11 23 1 12 -7 26 -11 31 -10 5 2
12 -2 16 -8 4 -7 13 -2 24 15 13 20 22 24 41 19 27 -7 33 7 11 25 -8 7 -25 9
-40 5 -38 -9 -32 8 18 50 47 39 61 44 61 24 0 -6 6 -13 13 -15 17 -6 15 28 -4
55 -17 24 -4 31 16 7 7 -8 19 -15 27 -15 11 0 14 -7 10 -21 -3 -12 -1 -19 6
-16 6 2 15 19 20 38 11 45 21 53 46 40 14 -8 21 -8 21 -1 0 5 -7 10 -15 10 -8
0 -15 7 -15 15 0 8 5 15 10 15 6 0 10 7 10 15 0 8 9 19 20 25 18 10 19 8 10
-15 -7 -19 -6 -25 5 -25 16 0 40 74 29 91 -3 6 3 13 15 16 12 3 21 12 21 19 0
19 16 18 24 -2 10 -26 7 -36 -9 -30 -16 6 -21 -9 -6 -19 15 -8 41 24 41 51 0
13 5 24 11 24 6 0 9 6 6 13 -7 19 14 43 46 51 26 6 28 5 22 -14 -3 -11 -2 -20
4 -20 15 0 24 41 12 53 -17 17 -13 27 15 37 14 6 22 14 19 20 -3 5 1 10 9 10
9 0 16 7 16 15 0 18 21 20 39 3 10 -11 11 -6 6 25 -7 37 7 53 19 21 5 -14 9
-14 22 -3 14 12 14 14 -2 26 -10 7 -16 14 -13 16 2 1 15 11 28 22 23 19 24 19
18 1 -5 -12 -1 -23 10 -31 15 -11 21 -9 38 11 l21 25 19 -21 c18 -19 55 -28
55 -12 0 4 -15 16 -34 26 -38 20 -53 45 -35 56 6 4 9 16 5 26 -7 23 8 52 18
35 4 -6 4 -16 0 -22 -4 -8 0 -9 15 -4 12 4 21 2 21 -4 0 -6 6 -10 13 -9 8 2
12 -12 11 -50 -2 -44 1 -51 12 -41 11 9 14 8 14 -5 0 -9 -5 -16 -11 -16 -6 0
-28 -17 -50 -39 -27 -26 -37 -44 -33 -55 5 -14 2 -16 -18 -11 -20 5 -26 2 -31
-16 -4 -13 -11 -20 -20 -16 -21 8 -39 -13 -26 -30 9 -10 8 -13 -5 -13 -14 0
-20 -11 -17 -32 0 -4 -5 -5 -13 -2 -7 3 -19 -2 -26 -11 -10 -12 -15 -13 -28
-3 -13 11 -14 10 -9 -12 4 -15 0 -37 -7 -52 -12 -23 -12 -25 5 -21 11 3 19 14
19 24 0 12 7 19 20 19 11 0 20 6 20 14 0 8 7 17 16 20 12 4 15 2 10 -9 -6 -17
-4 -18 18 -9 14 5 14 8 1 21 -9 8 -13 19 -10 24 9 14 25 11 25 -6 0 -8 7 -15
15 -15 8 0 15 5 15 10 0 6 -4 10 -10 10 -5 0 -10 7 -10 15 0 8 7 15 16 15 11
0 14 6 9 23 -4 16 -1 14 12 -8 9 -16 17 -33 18 -37 0 -3 3 -9 8 -12 4 -3 5 -3
2 1 -3 3 1 13 7 21 10 11 9 17 -5 27 -22 16 -21 21 2 44 17 17 22 18 38 6 23
-18 31 -18 30 -2 -2 57 4 97 14 91 6 -3 15 0 20 7 14 23 21 2 7 -21 -10 -18
-10 -24 0 -27 6 -3 12 -12 12 -21 0 -13 2 -14 13 -3 10 11 10 14 0 18 -13 5
-18 43 -6 43 3 0 15 -8 26 -17 15 -15 19 -15 17 -3 -4 27 0 40 11 38 6 -2 15
8 21 22 7 20 7 23 -3 13 -20 -20 -31 -15 -17 7 7 11 18 20 24 20 12 0 29 -28
25 -43 -1 -5 3 -6 9 -2 7 4 7 12 0 25 -14 25 -13 30 5 24 9 -4 15 0 15 10 0 9
5 16 10 16 6 0 10 7 10 15 0 8 5 15 10 15 16 0 12 -19 -10 -42 -11 -12 -20
-29 -20 -37 0 -11 8 -6 25 14 13 17 31 37 40 46 8 9 15 22 15 30 0 8 20 35 44
62 25 26 48 56 51 67 3 10 14 21 23 24 9 3 22 16 27 28 6 12 18 26 27 32 14 9
21 6 35 -14 23 -33 23 -42 -4 -56 -13 -6 -20 -14 -16 -17 3 -4 1 -7 -5 -7 -6
0 -9 -7 -5 -17 4 -11 3 -14 -6 -9 -7 5 -10 2 -9 -6 2 -7 -3 -12 -10 -10 -8 1
-11 -2 -7 -8 8 -13 -46 -99 -63 -100 -7 0 -10 -4 -7 -10 3 -5 1 -10 -5 -10 -6
0 -9 -4 -6 -9 4 -5 0 -12 -6 -15 -7 -2 -4 -4 7 -3 11 2 20 5 21 7 4 16 155
219 164 220 3 0 14 -14 23 -30 16 -26 16 -31 3 -36 -8 -3 -12 -12 -9 -20 3 -8
0 -14 -7 -14 -7 0 -27 -17 -45 -37 -25 -28 -31 -41 -23 -50 7 -9 7 -13 -1 -13
-19 0 -44 -29 -47 -56 -1 -13 2 -24 7 -24 5 0 9 5 9 12 0 6 3 8 6 5 9 -9 50
44 46 59 -1 7 7 15 18 19 12 4 19 9 16 12 -3 3 11 22 30 41 35 35 37 35 50 17
8 -10 14 -24 14 -29 0 -6 -35 -45 -78 -86 -79 -77 -132 -136 -84 -96 12 11 22
16 22 12 0 -5 15 5 34 20 18 16 44 37 57 48 13 10 37 30 52 45 24 22 29 23 37
11 5 -8 10 -17 10 -20 0 -10 -135 -145 -162 -163 -29 -18 -39 -43 -13 -33 17
6 20 -9 4 -20 -6 -3 -15 -1 -19 6 -27 43 -116 140 -130 140 -5 0 -10 4 -10 10
0 5 -7 7 -15 4 -13 -5 -6 -24 35 -100 27 -51 50 -95 50 -99 0 -3 -9 -1 -20 5
-14 7 -20 7 -20 0 0 -5 -7 -10 -15 -10 -8 0 -19 -8 -24 -19 -6 -11 -21 -18
-36 -18 -29 0 -66 -38 -58 -59 4 -10 -1 -13 -18 -12 -18 2 -23 -1 -21 -14 2
-10 -2 -18 -8 -18 -6 0 -8 5 -5 10 10 16 -12 12 -29 -5 -8 -9 -13 -22 -10 -29
3 -8 1 -17 -5 -21 -6 -3 -11 -1 -11 5 0 7 -7 10 -15 6 -8 -3 -15 0 -15 7 0 7
-6 3 -12 -8 -11 -19 -11 -19 -19 0 -7 19 -8 18 -8 -2 -1 -13 4 -23 9 -23 16 0
11 -27 -6 -34 -11 -4 -18 1 -21 14 -3 11 -9 20 -13 20 -5 0 -6 -10 -2 -22 3
-13 1 -19 -5 -15 -6 4 -13 -3 -16 -14 -4 -15 -11 -19 -25 -15 -13 4 -22 1 -26
-9 -3 -8 0 -15 6 -15 6 0 8 -3 5 -6 -4 -4 -13 -1 -21 6 -13 10 -18 9 -31 -3
-8 -9 -12 -22 -9 -30 3 -8 1 -18 -5 -22 -7 -3 -11 3 -11 15 0 13 -4 18 -11 14
-6 -3 -8 -17 -5 -29 3 -13 2 -27 -4 -30 -5 -3 -10 -1 -10 4 0 6 -4 11 -10 11
-5 0 -10 -8 -10 -17 0 -10 -4 -24 -9 -31 -6 -11 -11 -10 -25 3 -15 15 -16 15
-16 0 0 -9 -4 -14 -10 -10 -5 3 -15 -6 -23 -21 -9 -17 -17 -23 -21 -15 -12 19
-29 12 -23 -9 6 -25 -8 -26 -22 -2 -9 15 -10 13 -11 -10 0 -31 -18 -47 -30
-27 -6 9 -11 5 -15 -14 -4 -15 -11 -24 -16 -21 -5 3 -9 -1 -9 -8 0 -11 -2 -11
-8 0 -7 9 -13 6 -28 -13 -10 -14 -42 -37 -71 -51 -28 -14 -54 -32 -57 -40 -3
-9 -10 -12 -16 -9 -14 8 -13 -8 1 -22 6 -6 8 -17 4 -24 -5 -8 -12 -2 -21 17
l-12 29 -1 -39 c-1 -32 -3 -36 -15 -27 -11 10 -16 8 -24 -5 -6 -10 -16 -15
-25 -11 -10 4 -18 -1 -22 -14 -4 -10 -10 -17 -15 -14 -13 8 -70 -25 -70 -42 0
-8 -10 -23 -22 -33 -21 -16 -23 -16 -35 -1 -12 15 -13 14 -7 -1 4 -12 1 -18
-9 -18 -9 0 -19 -9 -22 -20 -4 -14 -21 -24 -50 -32 -24 -7 -41 -16 -38 -21 3
-5 -5 -6 -18 -2 -13 3 -19 3 -14 -2 6 -4 12 -17 13 -27 3 -17 2 -18 -12 -7
-14 12 -16 11 -16 -7 0 -14 -8 -21 -30 -24 -16 -3 -34 0 -40 6 -7 7 -10 4 -10
-8 0 -13 -5 -16 -22 -11 -17 6 -20 4 -15 -10 4 -9 7 -21 7 -27 0 -6 7 -4 17 3
14 12 16 12 11 -1 -2 -8 -22 -19 -44 -25 -47 -12 -66 -23 -59 -35 3 -4 -3 -7
-12 -6 -9 0 -18 -5 -21 -13 -2 -8 0 -11 6 -7 6 4 8 -2 4 -16 l-5 -22 -9 23 -8
23 -27 -22 c-21 -16 -27 -29 -25 -50 2 -15 -2 -31 -9 -36 -9 -5 -10 1 -6 24 7
36 0 39 -44 16 -17 -8 -33 -13 -36 -11 -8 9 -43 -32 -43 -52 0 -10 -11 -30
-24 -44 -13 -14 -22 -28 -19 -31 11 -11 -20 -67 -34 -62 -8 3 -11 1 -8 -4 3
-6 2 -10 -4 -10 -5 0 -31 23 -57 50 -50 53 -67 60 -38 16 9 -15 15 -28 13 -30
-2 -2 -13 -8 -24 -14 -16 -9 -17 -11 -4 -12 9 0 22 7 29 15 7 8 17 12 22 9 6
-4 6 -10 -1 -17 -6 -6 -11 -17 -11 -25 0 -12 3 -12 15 -2 9 8 15 9 15 2 0 -6
-5 -14 -11 -18 -11 -6 -9 -43 8 -119 5 -25 4 -86 -3 -160 -6 -66 -12 -102 -13
-80 0 23 -5 45 -10 50 -6 6 -12 35 -14 65 -2 30 -4 -15 -5 -102 l-2 -156 -102
5 c-57 3 -105 8 -108 10 -3 3 -5 128 -5 279 0 202 -3 274 -12 274 -6 0 -14 -6
-16 -12 -4 -10 -8 -10 -16 1 -8 12 -12 10 -22 -11 -6 -15 -20 -28 -30 -31 -11
-3 -16 -11 -13 -23 4 -15 -1 -19 -21 -20 -31 -2 -103 -62 -104 -87 -1 -10 2
-16 7 -13 4 2 7 -15 7 -40 0 -37 -3 -44 -20 -44 -18 -1 -19 -1 -2 -11 23 -13
22 -26 -5 -40 -18 -10 -20 -9 -14 7 4 9 2 21 -5 24 -8 5 -6 17 6 40 18 35 14
50 -10 30 -12 -10 -15 -10 -15 0 0 8 -3 10 -7 7 -3 -4 -12 -2 -18 3 -9 8 -11
4 -7 -15 2 -14 9 -22 14 -19 6 4 8 -2 6 -11 -5 -27 -25 -29 -32 -3 -4 13 -10
18 -12 11 -3 -7 -11 -10 -18 -7 -10 4 -12 -2 -9 -19 6 -29 -12 -44 -32 -27
-16 14 -27 -1 -14 -20 13 -22 11 -25 -20 -27 -37 -3 -103 -34 -109 -51 -3 -11
0 -12 17 -3 14 8 27 9 38 3 14 -8 12 -12 -13 -28 -16 -10 -35 -24 -42 -31 -7
-7 -17 -13 -22 -13 -5 0 -15 -3 -24 -6 -11 -4 -16 -1 -16 10 0 25 -16 19 -40
-14 -12 -16 -26 -30 -32 -30 -6 0 -16 -8 -23 -17 -11 -15 -14 -15 -35 5 -12
11 -19 25 -15 31 9 16 25 13 25 -4 0 -8 5 -15 10 -15 6 0 10 5 10 11 0 17 75
89 93 89 10 0 13 6 10 20 -6 22 -6 22 -27 14 -9 -3 -16 -11 -16 -18 0 -6 -14
-20 -30 -31 -16 -11 -30 -26 -30 -34 0 -11 -3 -11 -14 -2 -23 19 -58 -21 -50
-55 7 -27 -17 -52 -63 -66 -29 -8 -29 -3 2 34 26 31 32 30 15 -2 -8 -16 -8
-18 5 -14 14 6 16 12 19 59 3 43 66 115 66 74 0 -5 5 -7 10 -4 6 3 10 15 10
25 0 12 10 21 30 25 26 6 30 11 30 42 0 38 -17 41 -35 6 -13 -24 -41 -53 -52
-53 -5 0 -22 -13 -38 -30 -16 -16 -36 -30 -44 -30 -11 0 -8 7 12 24 15 13 27
28 27 35 0 6 5 11 11 11 6 0 8 9 4 20 -8 26 4 47 16 29 8 -12 10 -12 18 0 5 8
7 20 5 26 -3 7 39 54 94 106 54 52 107 107 117 122 10 16 24 26 31 23 8 -3 14
-1 14 4 0 6 6 10 13 10 6 0 36 23 66 50 30 27 67 54 83 61 15 6 28 18 28 25 0
20 -16 17 -39 -8 -19 -19 -21 -20 -27 -4 -4 11 -1 21 7 26 11 7 9 10 -6 16
-12 5 -20 3 -23 -4 -3 -9 -15 -10 -38 -6 -24 4 -35 2 -39 -7 -5 -15 -30 -15
-230 -3 -49 2 -94 1 -100 -3 -5 -4 -32 -34 -59 -66 -39 -47 -46 -60 -36 -72
13 -16 35 -21 25 -6 -3 5 5 11 17 13 15 2 22 9 21 21 0 10 2 16 5 13 3 -3 12
0 20 6 14 12 90 37 119 40 7 1 15 10 19 20 6 19 44 26 44 8 0 -5 -4 -10 -9
-10 -6 0 -23 -12 -38 -26 -32 -30 -30 -30 49 11 32 16 60 26 64 22 8 -8 -92
-107 -109 -108 -17 0 -89 -97 -75 -101 9 -3 -82 -88 -95 -88 -3 0 -19 -13 -37
-30 -26 -24 -29 -31 -16 -36 20 -8 21 -24 1 -24 -8 0 -15 6 -15 14 0 8 -6 16
-12 19 -18 5 -49 -4 -43 -13 2 -4 -4 -16 -14 -27 -10 -10 -24 -29 -30 -41 -14
-27 -43 -30 -35 -4 3 9 -8 1 -26 -18 -53 -60 -54 -61 -40 -70 11 -7 11 -11 0
-25 -7 -9 -16 -12 -19 -6 -3 5 -25 -9 -49 -30 -24 -23 -39 -45 -36 -51 5 -8 1
-9 -10 -5 -9 4 -28 0 -41 -9 -14 -9 -62 -21 -107 -26 -46 -6 -94 -16 -108 -23
-47 -25 -87 -71 -105 -120 -28 -75 -63 -122 -167 -220 -172 -165 -244 -225
-277 -231 -37 -8 -38 -3 -8 29 12 13 78 86 147 162 69 77 179 195 246 264 284
296 513 551 514 575 0 12 48 56 61 56 5 0 10 6 10 13 1 6 2 18 3 25 1 17 26
31 42 25 14 -5 38 33 29 47 -3 5 1 7 9 4 9 -3 23 6 36 24 13 18 28 28 36 25
19 -7 44 15 44 37 0 10 -8 21 -17 25 -10 3 -117 6 -238 5 -848 -4 -1423 -3
-1442 4 -19 6 -23 14 -22 44 1 36 2 36 8 7 4 -19 13 -31 26 -33 19 -4 19 -3 1
10 -10 8 -17 21 -14 29 3 10 25 13 89 12 l84 -1 -71 8 c-90 10 -116 18 -107
33 4 7 -1 5 -12 -3 -17 -14 -18 -12 -11 54 9 93 17 106 67 106 38 0 39 -1 28
-22 -7 -13 -21 -36 -32 -51 -10 -16 -17 -30 -14 -33 6 -6 60 71 70 99 6 16 31
17 328 17 l321 0 90 98 c50 53 157 162 237 242 212 209 369 374 349 367 -14
-5 -18 -1 -18 17 l0 24 -51 -19 c-28 -11 -47 -14 -44 -8 5 8 1 8 -15 -1 -13
-7 -19 -17 -16 -26 3 -8 2 -13 -3 -10 -9 6 -68 -51 -255 -242 -54 -56 -104
-102 -111 -102 -6 0 -22 -11 -35 -25 l-23 -25 -18 21 c-23 27 -28 43 -38 121
-9 70 -8 79 -20 -127 -4 -79 -9 -109 -18 -108 -7 2 -18 -7 -24 -20 -6 -12 -20
-30 -30 -39 -17 -17 -18 -16 -17 12 1 16 4 28 7 25 4 -2 5 12 3 31 -2 19 -8
34 -14 34 -5 0 -6 15 -2 35 5 31 4 35 -15 35 -14 0 -21 6 -21 20 0 14 -7 20
-23 20 -38 0 -28 42 23 97 25 26 -4 1 -65 -57 -60 -58 -146 -139 -190 -181
-44 -41 -97 -94 -118 -116 -40 -45 -88 -63 -112 -43 -9 8 -15 31 -16 59 0 40
-2 43 -11 24 -9 -19 -28 -32 -28 -19 0 24 50 103 81 128 95 77 130 108 120
108 -5 0 -12 -4 -15 -8 -2 -4 -22 -6 -44 -4 -39 4 -40 5 -47 48 -4 32 1 71 19
142 29 112 74 252 87 268 5 6 20 42 34 80 30 79 109 231 164 313 49 75 58 92
27 56 -14 -16 -26 -25 -27 -20 -1 6 -5 -1 -9 -15 l-8 -25 -1 28 c-1 15 -5 27
-11 27 -5 0 -10 11 -10 25 0 14 -4 25 -10 25 -5 0 -10 7 -10 16 0 8 -4 13 -8
10 -13 -8 0 57 17 84 32 52 182 247 238 312 151 173 374 354 621 502 l62 37 0
62 c-1 47 -3 58 -11 44 -6 -9 -45 -35 -87 -57 -187 -96 -409 -258 -562 -410
-138 -137 -370 -436 -444 -573 -108 -199 -216 -434 -249 -542 -63 -209 -81
-292 -111 -529 -28 -215 -31 -301 -16 -531 13 -199 23 -267 75 -476 60 -245
132 -414 300 -709 20 -36 45 -74 56 -86 l20 -21 -77 -7 c-42 -3 -137 -6 -210
-6 l-133 0 -29 53 c-108 187 -256 612 -311 887 -64 319 -66 801 -5 1115 70
362 222 747 431 1090 131 217 315 447 499 625 105 101 142 131 355 286 315
230 830 438 1269 514 181 31 298 39 545 35 173 -2 265 -8 370 -24z m2666 -464
c11 -191 47 -338 91 -375 31 -25 136 -53 238 -63 207 -21 208 -21 95 -36 -181
-24 -281 -44 -313 -63 -65 -40 -82 -93 -109 -333 -10 -89 -19 -146 -20 -127
-6 81 -26 230 -39 295 -20 98 -48 150 -89 169 -44 21 -212 55 -317 65 -93 8
-84 11 83 30 105 12 220 43 260 72 15 10 34 36 42 58 22 53 46 211 54 343 3
60 9 106 12 103 3 -3 8 -65 12 -138z m-475 51 c9 -18 29 -47 45 -64 l29 -30
-40 -42 c-22 -24 -43 -54 -46 -67 -9 -35 -16 -31 -40 24 -15 34 -31 52 -53 62
-30 13 -41 29 -21 29 18 0 77 60 90 90 7 16 14 30 16 30 2 0 11 -15 20 -32z
m-2873 -45 c-7 -2 -19 -2 -25 0 -7 3 -2 5 12 5 14 0 19 -2 13 -5z m-1993 -337
c0 -3 -4 -8 -10 -11 -5 -3 -10 -1 -10 4 0 6 5 11 10 11 6 0 10 -2 10 -4z
m-661 -100 c24 -38 66 -66 101 -66 11 0 20 -4 20 -10 0 -5 -7 -10 -17 -10 -9
0 -35 -11 -58 -25 -44 -25 -75 -79 -75 -130 0 -14 -4 -25 -10 -25 -5 0 -10 10
-10 23 -1 30 -33 98 -57 119 -10 10 -46 24 -79 32 -55 13 -57 14 -29 21 73 17
96 28 125 61 16 19 30 39 30 44 0 5 5 21 11 37 l12 28 7 -31 c4 -18 17 -48 29
-68z m4355 -81 c-4 -8 -12 -15 -20 -15 -17 0 -18 17 -1 23 22 9 27 7 21 -8z
m-6 -57 c16 -16 15 -36 -4 -55 -10 -10 -18 -12 -22 -6 -4 6 -22 18 -39 27 -42
21 -44 41 -3 33 16 -4 32 -2 35 3 8 13 18 13 33 -2z m32 2 c0 -5 -2 -10 -4
-10 -3 0 -8 5 -11 10 -3 6 -1 10 4 10 6 0 11 -4 11 -10z m-120 -95 c-7 -9 -15
-13 -18 -10 -3 2 1 11 8 20 7 9 15 13 18 10 3 -2 -1 -11 -8 -20z m-160 -20 c0
-8 -4 -15 -9 -15 -13 0 -22 16 -14 24 11 11 23 6 23 -9z m95 -6 c4 -6 5 -13 1
-16 -8 -8 -56 6 -56 17 0 13 47 13 55 -1z m450 -59 c3 -5 1 -10 -4 -10 -6 0
-11 5 -11 10 0 6 2 10 4 10 3 0 8 -4 11 -10z m-545 -20 c0 -5 -4 -10 -10 -10
-5 0 -10 5 -10 10 0 6 5 10 10 10 6 0 10 -4 10 -10z m525 -10 c3 -5 -1 -10 -9
-10 -9 0 -16 5 -16 10 0 6 4 10 9 10 6 0 13 -4 16 -10z m354 -77 c23 -27 41
-51 41 -55 0 -4 -30 -44 -67 -89 -38 -44 -69 -84 -71 -89 -2 -5 9 -15 23 -23
24 -12 25 -15 11 -27 -14 -11 -19 -9 -35 9 -10 11 -21 21 -24 21 -2 0 -12 -16
-21 -35 -9 -19 -22 -35 -29 -35 -7 0 -21 -12 -32 -26 -38 -48 -99 -104 -110
-101 -12 4 -14 57 -2 74 6 8 2 10 -14 6 -18 -5 -21 -3 -16 11 5 14 3 16 -12
11 -18 -5 -39 21 -26 33 3 3 5 0 5 -6 0 -7 4 -12 8 -12 10 0 47 62 44 73 -1 5
7 11 18 14 11 3 20 12 20 19 0 8 5 14 10 14 6 0 10 -9 10 -19 0 -11 5 -21 11
-23 9 -3 9 -10 0 -26 -8 -14 -8 -22 -1 -22 5 0 10 3 10 8 0 4 11 21 25 37 14
17 22 22 19 12 -5 -13 -2 -16 10 -11 20 8 20 18 2 33 -10 9 -16 8 -26 -4 -18
-22 -36 -18 -35 8 2 28 65 93 75 76 8 -12 24 18 21 38 -1 7 4 10 12 7 27 -10
29 28 2 56 -26 28 -31 40 -15 40 5 0 16 -13 25 -30 9 -16 21 -30 28 -30 17 0
62 84 53 99 -4 6 -3 11 3 11 5 0 28 -21 50 -47z m-926 0 c17 -62 17 -73 2 -73
-9 0 -27 -12 -40 -27 -13 -16 -25 -22 -25 -15 0 7 6 15 14 18 21 8 28 34 15
51 -9 10 -9 20 -1 38 13 29 29 32 35 8z m2342 -55 c3 -13 9 -102 11 -198 5
-173 -2 -266 -21 -264 -6 0 -28 -3 -49 -7 -48 -9 -66 -3 -66 22 0 21 -20 25
-38 7 -9 -9 -12 -4 -14 23 -4 70 3 96 46 189 25 52 59 130 76 173 18 42 35 77
40 77 4 0 11 -10 15 -22z m-6824 -60 c5 -24 13 -81 19 -128 5 -47 12 -104 15
-127 12 -76 -20 -134 -84 -153 -26 -7 -36 -5 -60 16 -16 13 -37 24 -46 24 -16
0 -17 8 -13 64 5 53 18 89 77 211 39 82 74 145 77 142 4 -3 11 -26 15 -49z
m4364 28 c0 -22 -14 -29 -33 -18 -17 12 -4 44 17 40 9 -2 16 -12 16 -22z m504
-12 c6 -15 9 -29 7 -32 -10 -9 -36 20 -36 39 0 27 15 23 29 -7z m331 -14 c0
-13 -5 -18 -15 -14 -16 7 -19 17 -8 27 12 13 23 7 23 -13z m-925 -78 c-17 -16
-17 -16 -12 1 4 11 1 17 -8 17 -8 0 -15 6 -15 13 0 25 13 27 33 6 19 -20 19
-22 2 -37z m1155 4 c0 -8 -7 -16 -15 -20 -15 -5 -21 14 -8 27 11 12 23 8 23
-7z m-1138 -44 c-9 -10 -18 -14 -20 -10 -5 10 21 37 30 32 4 -3 0 -13 -10 -22z
m785 2 c-3 -3 -12 -4 -19 -1 -8 3 -5 6 6 6 11 1 17 -2 13 -5z m253 -83 c0 -5
-6 -14 -14 -20 -12 -10 -13 -8 -9 8 5 21 23 30 23 12z m-61 -32 c-16 -10 -23
-4 -14 10 3 6 11 8 17 5 6 -4 5 -9 -3 -15z m63 -11 c-7 -7 -12 -8 -12 -2 0 14
12 26 19 19 2 -3 -1 -11 -7 -17z m-88 -26 c-6 -4 -14 -17 -18 -29 -4 -13 -14
-23 -21 -23 -9 0 -12 6 -8 18 10 27 24 42 42 42 10 0 12 -3 5 -8z m-294 -57
c10 -12 10 -18 0 -30 -19 -23 -30 -18 -30 15 0 33 11 38 30 15z m-920 -15 c0
-11 -22 -26 -47 -32 -17 -5 -20 -2 -16 11 8 23 33 40 49 34 8 -3 14 -9 14 -13z
m-3865 -33 c8 -42 -18 -110 -53 -137 -18 -15 -40 -20 -84 -20 -52 0 -128 20
-128 34 0 3 24 3 53 0 40 -4 49 -3 37 6 -11 8 -12 13 -3 16 7 3 31 23 55 45
24 21 51 42 61 45 10 3 22 17 28 30 11 32 26 23 34 -19z m5603 -10 c2 -11 -27
-48 -77 -97 -94 -92 -118 -109 -127 -85 -4 9 -5 17 -3 18 56 37 77 60 72 75
-3 9 -3 14 1 10 7 -6 66 46 66 58 0 11 45 43 55 40 6 -1 11 -10 13 -19z m-623
2 c11 -16 1 -19 -13 -3 -7 8 -8 14 -3 14 5 0 13 -5 16 -11z m665 -94 c0 -14
-42 -65 -54 -65 -4 0 -17 -9 -29 -20 -18 -18 -19 -22 -7 -30 8 -5 11 -13 6
-17 -4 -4 -13 0 -20 9 -8 11 -17 14 -27 7 -9 -6 -10 -12 -4 -16 13 -10 12 -33
-3 -58 -10 -17 -13 -18 -22 -5 -6 8 -8 23 -6 32 2 11 -4 18 -20 22 -30 8 -31
32 -2 47 17 9 20 9 15 -4 -11 -30 30 -6 44 26 8 17 23 35 34 41 11 6 33 21 48
34 29 23 47 22 47 -3z m1141 -12 c-9 -15 -10 -14 -7 7 6 35 7 37 12 23 3 -7 1
-20 -5 -30z m-2251 13 c0 -3 -4 -8 -10 -11 -5 -3 -10 -1 -10 4 0 6 5 11 10 11
6 0 10 -2 10 -4z m-40 -36 c0 -5 -5 -10 -11 -10 -5 0 -7 5 -4 10 3 6 8 10 11
10 2 0 4 -4 4 -10z m1180 -46 c0 -24 -4 -34 -12 -31 -11 3 -14 29 -9 70 1 5 6
5 11 2 6 -3 10 -22 10 -41z m-39 -21 c3 -41 -4 -67 -21 -85 -22 -24 -36 -7
-18 22 10 16 10 24 0 41 -7 12 -10 24 -6 27 4 4 9 1 11 -5 3 -7 9 -13 15 -13
6 0 8 7 4 15 -3 8 -1 15 4 15 6 0 10 -8 11 -17z m83 -69 c9 -25 7 -41 -6 -47
-9 -3 -14 7 -15 29 -2 35 10 46 21 18z m-2274 -23 c0 -6 -4 -13 -10 -16 -5 -3
-10 1 -10 9 0 9 5 16 10 16 6 0 10 -4 10 -9z m905 -21 c0 -8 -8 -16 -17 -18
-13 -2 -18 3 -18 18 0 15 5 20 18 18 9 -2 17 -10 17 -18z m1025 -8 c0 -10 -42
-46 -108 -90 -243 -165 -529 -369 -803 -572 -534 -396 -573 -425 -719 -525
-144 -99 -236 -171 -244 -190 -3 -8 -9 -15 -15 -15 -10 0 -19 40 -13 58 2 7
50 44 105 84 56 39 194 137 306 217 112 80 269 193 350 251 81 58 205 149 276
202 181 135 325 238 430 310 50 34 152 107 228 162 171 125 189 136 199 130 4
-3 8 -13 8 -22z m294 12 c4 -9 5 -18 4 -18 -23 -13 -57 -23 -62 -18 -6 6 33
50 45 51 4 1 10 -6 13 -15z m-124 2 c0 -2 -8 -10 -17 -17 -16 -13 -17 -12 -4
4 13 16 21 21 21 13z m-1253 -64 c-10 -10 -17 -24 -17 -30 0 -7 -4 -12 -9 -12
-5 0 -13 -9 -16 -20 -8 -24 -21 -25 -41 -5 -14 13 -13 15 10 15 22 0 26 4 26
31 0 26 3 29 14 20 10 -9 15 -8 20 4 3 8 11 15 17 15 8 0 6 -7 -4 -18z m1463
-27 c0 -15 -8 -29 -21 -36 -20 -10 -21 -9 -16 12 4 13 7 30 7 37 0 6 7 12 15
12 9 0 15 -9 15 -25z m-302 -61 c37 -65 36 -68 -40 -108 l-53 -28 45 41 c24
23 47 41 51 41 4 0 5 9 2 21 -4 12 -11 18 -20 15 -8 -3 -11 -1 -8 4 3 6 0 10
-8 10 -19 0 -115 -66 -287 -195 -74 -56 -162 -119 -195 -139 -33 -21 -98 -69
-145 -105 -47 -37 -130 -98 -185 -136 -55 -37 -120 -84 -145 -105 -46 -37
-159 -120 -300 -220 -43 -30 -105 -75 -138 -100 -33 -25 -119 -87 -191 -139
-72 -52 -157 -120 -188 -152 -54 -54 -59 -57 -75 -42 -10 9 -18 22 -18 30 0
27 137 149 255 228 66 43 140 96 165 115 25 20 83 63 130 95 169 117 366 259
395 285 17 15 78 59 137 99 59 39 131 90 160 114 178 145 584 425 618 426 3 0
20 -25 38 -55z m224 -6 c-9 -9 -12 -7 -12 12 0 19 3 21 12 12 9 -9 9 -15 0
-24z m-240 -32 c10 5 10 4 2 -5 -12 -13 -44 -5 -44 11 0 6 6 5 15 -2 8 -6 20
-8 27 -4z m276 -53 c-4 -20 -35 -30 -50 -15 -15 15 0 32 28 32 19 0 25 -5 22
-17z m-1648 -63 c0 -5 -4 -10 -10 -10 -5 0 -10 5 -10 10 0 6 5 10 10 10 6 0
10 -4 10 -10z m1550 -20 c0 -5 -2 -10 -4 -10 -3 0 -8 5 -11 10 -3 6 -1 10 4
10 6 0 11 -4 11 -10z m129 -28 c12 -23 -2 -47 -23 -39 -24 10 -20 57 5 57 5 0
13 -8 18 -18z m933 -39 c36 -32 13 -113 -33 -113 -25 0 -59 39 -59 66 0 22 42
64 63 64 6 0 19 -7 29 -17z m-1504 -35 c23 7 -15 -43 -53 -72 -18 -14 -34 -23
-36 -21 -2 2 -22 -27 -44 -63 -73 -121 -105 -321 -71 -436 17 -56 112 -225
136 -243 10 -7 26 -34 38 -60 11 -26 49 -78 84 -115 54 -57 67 -66 88 -61 30
7 -64 -63 -127 -96 l-43 -21 -25 40 c-14 22 -36 58 -49 79 -14 21 -39 75 -56
120 -17 44 -36 83 -41 86 -5 4 -9 14 -9 23 0 10 -14 33 -31 52 l-30 35 25 -36
c37 -51 32 -56 -10 -9 -49 54 -89 77 -176 100 -60 15 -67 19 -37 19 39 1 155
-31 204 -56 l29 -16 -15 24 c-9 13 -43 38 -75 56 -81 44 -166 55 -331 43 -118
-9 -159 -17 -281 -56 -24 -7 -42 -9 -40 -5 5 14 130 116 178 146 25 15 77 51
115 80 39 28 108 78 154 110 105 72 426 320 454 350 7 8 21 10 37 5 14 -4 31
-5 38 -2z m507 -39 c0 -7 -8 -15 -17 -17 -18 -3 -25 18 -11 32 10 10 28 1 28
-15z m-4541 -43 c-3 -8 -13 -17 -22 -21 -13 -5 -13 -2 3 15 21 24 26 25 19 6z
m5771 -36 c14 -22 31 -109 24 -122 -8 -14 -16 -80 -24 -208 -9 -126 -21 -166
-56 -180 -16 -7 -41 -9 -56 -6 -16 3 -34 8 -40 9 -7 2 -25 14 -39 28 l-27 24
7 -42 c3 -23 10 -53 15 -67 18 -45 161 -126 161 -91 0 8 16 18 35 24 19 5 48
19 65 31 30 22 70 86 70 114 0 26 22 30 40 6 12 -16 24 -21 39 -17 22 5 25 -1
21 -58 -3 -48 -51 -126 -96 -158 -55 -38 -152 -48 -219 -23 -91 35 -175 149
-175 239 0 76 44 193 110 297 34 52 75 121 93 153 32 57 41 65 52 47z m-1237
-13 c22 -26 25 -67 7 -87 -10 -11 -25 -20 -33 -20 -25 0 -52 31 -52 58 0 47
52 80 78 49z m-4608 -27 c0 -5 -5 -10 -11 -10 -5 0 -7 5 -4 10 3 6 8 10 11 10
2 0 4 -4 4 -10z m-45 -50 c3 -5 -1 -10 -9 -10 -9 0 -16 5 -16 10 0 6 4 10 9
10 6 0 13 -4 16 -10z m4465 -9 c0 -10 -7 -22 -15 -25 -20 -7 -32 23 -14 35 21
13 29 11 29 -10z m-4500 -21 c0 -11 -4 -20 -10 -20 -5 0 -10 9 -10 20 0 11 5
20 10 20 6 0 10 -9 10 -20z m4410 -69 c0 -12 -29 -35 -36 -28 -11 10 5 37 21
37 8 0 15 -4 15 -9z m-329 -335 c12 -40 30 -77 45 -91 13 -12 24 -27 24 -33 0
-6 -16 5 -35 25 -45 47 -65 113 -70 233 l-4 95 10 -80 c5 -44 18 -111 30 -149z
m893 152 c18 -144 18 -158 1 -158 -12 0 -14 -4 -5 -19 5 -11 10 -29 10 -40 0
-21 -4 -21 -295 -21 -284 0 -295 1 -286 18 16 29 -12 59 -60 67 -51 9 -109 32
-109 44 0 5 7 14 15 21 8 6 17 22 21 33 3 12 17 39 31 60 l26 37 323 0 323 0
5 -42z m-2114 -19 c0 -6 -4 -7 -10 -4 -5 3 -10 11 -10 16 0 6 5 7 10 4 6 -3
10 -11 10 -16z m-193 -167 c-14 -17 -22 0 -12 26 5 14 7 14 15 2 5 -9 4 -20
-3 -28z m-87 -60 c-7 -13 -9 -8 -9 23 0 35 1 37 10 17 6 -15 5 -30 -1 -40z
m-30 25 c0 -7 -5 -18 -12 -25 -9 -9 -9 -12 1 -12 7 0 9 -5 6 -11 -5 -6 -12 -4
-21 8 -16 21 -19 47 -4 38 6 -3 10 -1 10 4 0 6 5 11 10 11 6 0 10 -6 10 -13z
m600 -21 c0 -14 38 -14 64 1 6 3 4 -1 -4 -10 -24 -25 -398 -270 -517 -338 -34
-19 -45 -21 -55 -11 -26 26 154 177 313 261 47 26 105 61 129 79 46 34 70 41
70 18z m-640 -25 c0 -6 -4 -12 -8 -15 -5 -3 -9 1 -9 9 0 8 4 15 9 15 4 0 8 -4
8 -9z m1700 -58 c13 -14 13 -15 -5 -8 -11 4 -35 7 -52 6 -27 -1 -33 2 -33 18
0 18 4 18 38 9 20 -5 44 -17 52 -25z m-690 -93 c-68 -66 -125 -120 -127 -120
-2 0 -3 6 -3 14 0 8 19 29 42 48 24 18 79 66 123 105 44 40 82 73 84 73 3 0
-51 -54 -119 -120z m-2917 83 c-7 -2 -19 -2 -25 0 -7 3 -2 5 12 5 14 0 19 -2
13 -5z m1028 -21 c9 -25 -3 -29 -21 -8 -6 8 -18 12 -26 9 -8 -3 -14 0 -14 5 0
10 27 21 44 18 5 -1 13 -12 17 -24z m-1116 10 c-6 -4 -26 -21 -45 -37 -30 -26
-32 -27 -15 -5 25 32 46 50 59 50 6 0 6 -3 1 -8z m615 4 c0 -11 -19 -15 -25
-6 -3 5 1 10 9 10 9 0 16 -2 16 -4z m-63 -56 c-11 -29 -27 -41 -27 -19 0 16
20 49 29 49 5 0 4 -13 -2 -30z m-55 -50 c4 0 8 -7 8 -15 0 -8 -7 -15 -15 -15
-8 0 -15 5 -15 10 0 6 -7 10 -15 10 -18 0 -20 21 -3 38 10 10 15 9 22 -8 5
-11 13 -20 18 -20z m513 3 c4 -14 2 -23 -5 -23 -12 0 -30 41 -23 53 7 11 19
-2 28 -30z m535 27 c0 -5 -2 -10 -4 -10 -3 0 -8 5 -11 10 -3 6 -1 10 4 10 6 0
11 -4 11 -10z m-2182 -21 c-28 -16 -21 -29 15 -30 27 -2 28 -2 7 -6 -14 -3
-40 -19 -57 -36 -18 -17 -33 -27 -33 -22 0 5 -12 -2 -26 -16 l-27 -24 18 35
c19 36 93 110 110 110 5 0 2 -5 -7 -11z m657 -17 c16 -9 57 -17 90 -17 91 -3
87 -2 74 -27 -23 -44 -74 -99 -153 -170 -45 -38 -124 -112 -178 -164 -53 -52
-98 -88 -101 -81 -2 7 -3 31 -1 55 2 40 0 43 -27 49 -40 8 -47 23 -19 45 12
10 20 22 16 25 -4 4 -21 -9 -39 -28 -18 -19 -70 -68 -116 -109 -46 -41 -127
-117 -180 -167 l-96 -93 -9 30 c-8 26 -4 35 30 76 41 51 251 270 457 477 l129
129 46 -7 c26 -4 60 -14 77 -23z m3234 -39 c-156 -165 -440 -455 -418 -427 68
87 141 172 171 199 18 17 92 90 164 163 135 136 196 184 83 65z m1601 57 c0
-5 -9 -10 -20 -10 -11 0 -20 5 -20 10 0 6 9 10 20 10 11 0 20 -4 20 -10z
m-3340 -19 c0 -19 -17 -38 -25 -29 -7 7 7 48 16 48 5 0 9 -9 9 -19z m2728 7
c7 -7 12 -25 12 -40 0 -21 -6 -29 -24 -34 -33 -8 -46 2 -46 35 0 28 16 51 35
51 6 0 16 -5 23 -12z m-3951 -4 c-3 -3 -12 -4 -19 -1 -8 3 -5 6 6 6 11 1 17
-2 13 -5z m-47 -14 c0 -12 -17 -12 -45 0 -17 7 -15 9 13 9 17 1 32 -3 32 -9z
m1708 -2 c5 -7 17 -30 26 -52 20 -49 0 -34 -32 23 -22 38 -17 57 6 29z m2882
2 c0 -5 -7 -10 -16 -10 -8 0 -12 5 -9 10 3 6 10 10 16 10 5 0 9 -4 9 -10z
m-960 -92 c0 -5 -6 -8 -12 -8 -7 0 -26 24 -41 53 l-29 52 41 -45 c22 -25 40
-48 41 -52z m-3390 62 c0 -6 -7 -13 -15 -16 -8 -4 -15 -12 -15 -19 0 -6 -10
-20 -22 -31 -20 -18 -21 -18 -15 -1 4 10 7 22 7 26 0 11 39 51 50 51 6 0 10
-5 10 -10z m971 -11 c8 -15 8 -19 0 -15 -6 4 -19 0 -28 -9 -16 -16 -17 -16
-30 1 -9 13 -10 21 -2 31 17 20 47 16 60 -8z m87 -17 c2 -18 -1 -32 -7 -32 -6
0 -11 6 -12 13 0 6 -2 23 -5 35 -3 16 0 22 8 20 7 -3 14 -19 16 -36z m3292 28
c0 -5 -4 -10 -10 -10 -5 0 -10 5 -10 10 0 6 5 10 10 10 6 0 10 -4 10 -10z
m-4428 -22 c4 -30 -22 -88 -40 -88 -9 0 -12 11 -8 43 2 23 5 48 5 55 2 22 39
13 43 -10z m4418 -28 c-12 -8 -12 -10 3 -10 11 0 17 -5 14 -12 -2 -7 -9 -12
-15 -11 -5 1 -13 -4 -16 -12 -3 -10 0 -12 11 -8 13 5 15 2 10 -11 -4 -10 -7
-26 -7 -37 0 -11 -7 -19 -17 -19 -14 0 -15 -2 -4 -9 12 -8 11 -24 -4 -107 -15
-87 -34 -150 -35 -118 0 17 18 106 25 127 6 13 3 16 -9 11 -11 -4 -16 -18 -16
-45 0 -21 -4 -39 -10 -39 -12 0 -12 -2 -1 57 5 26 17 91 26 143 16 86 37 131
54 114 3 -3 -1 -9 -9 -14z m-2000 -40 c-23 -27 -45 -50 -50 -50 -4 0 -7 -11
-7 -25 0 -45 -33 -66 -77 -49 -9 3 -16 17 -16 29 0 33 28 58 58 52 20 -4 36 6
76 44 28 27 53 49 54 49 2 0 -15 -22 -38 -50z m-1350 14 c0 -8 5 -14 10 -14 6
0 10 10 10 22 0 21 1 21 16 6 15 -15 14 -18 -9 -44 -22 -24 -27 -25 -32 -12
-4 9 -13 14 -21 11 -17 -6 -18 11 -2 36 13 21 28 19 28 -5z m-52 -41 c2 -8 -5
-13 -17 -13 -12 0 -21 6 -21 16 0 18 31 15 38 -3z m-1121 -28 c6 -18 -23 -55
-44 -55 -20 0 -26 25 -13 49 13 25 48 28 57 6z m1233 -19 c0 -17 -14 -29 -23
-20 -8 8 3 34 14 34 5 0 9 -6 9 -14z m2404 -2 c6 -15 4 -15 -11 -3 -10 7 -20
15 -22 16 -2 2 3 3 11 3 9 0 19 -7 22 -16z m-2499 -15 c0 -8 -10 -15 -22 -17
-25 -4 -30 7 -11 26 15 15 33 10 33 -9z m593 -23 c18 -24 32 -47 32 -50 0 -3
-9 -10 -21 -17 -19 -10 -20 -9 -14 12 6 17 4 21 -9 16 -13 -5 -14 -1 -9 25 4
21 3 29 -5 24 -13 -8 -26 10 -17 24 9 14 8 15 43 -34z m1842 17 c0 -9 8 -25
18 -36 17 -19 16 -20 -8 -7 l-25 13 28 -36 c15 -19 27 -40 27 -46 0 -6 4 -11
9 -11 5 0 19 -21 30 -46 17 -35 19 -49 10 -60 -13 -16 -99 -74 -109 -74 -13 0
-153 195 -154 214 -1 13 22 31 79 62 90 49 95 51 95 27z m-3200 -17 c14 -18
13 -19 -7 -14 -20 5 -22 3 -17 -18 7 -26 -13 -35 -22 -10 -4 12 25 74 30 64 1
-2 8 -12 16 -22z m585 -6 c0 -8 -10 -16 -22 -18 -25 -4 -26 -2 -17 23 8 19 39
16 39 -5z m133 3 c2 -7 -2 -13 -9 -13 -7 0 -21 -8 -31 -17 -17 -15 -19 -15
-33 3 -13 17 -14 17 -15 2 0 -10 -7 -18 -15 -18 -18 0 -19 9 -2 31 9 12 23 16
45 13 22 -2 31 0 26 7 -4 7 1 10 11 7 10 -1 20 -9 23 -15z m2162 9 c0 -10
-237 -242 -247 -242 -4 0 45 56 111 125 110 115 136 138 136 117z m-2750 -21
c0 -21 -13 -41 -26 -41 -17 0 -18 22 -2 38 14 14 28 16 28 3z m331 -20 c-8 -5
-20 -7 -28 -4 -21 8 -15 13 15 13 20 0 23 -3 13 -9z m-941 -9 c0 -5 -9 -17
-21 -28 -17 -15 -22 -16 -29 -4 -6 9 -3 18 8 27 20 14 42 17 42 5z m1020 -1
c0 -6 -5 -13 -10 -16 -7 -4 -6 -13 1 -26 9 -18 8 -20 -13 -17 -18 2 -22 9 -20
28 3 30 42 58 42 31z m278 -13 c-2 -13 -7 -23 -13 -23 -5 0 -11 10 -13 23 -2
15 2 22 13 22 11 0 15 -7 13 -22z m796 6 c9 -24 7 -44 -4 -44 -12 0 -30 41
-23 53 7 12 21 8 27 -9z m-1698 -60 c-3 -9 -10 -12 -16 -9 -14 9 -13 48 3 64
10 10 13 7 15 -14 2 -15 1 -33 -2 -41z m2049 41 c-16 -13 -31 -22 -34 -20 -8
8 32 45 48 45 11 -1 7 -8 -14 -25z m539 19 c20 -8 21 -44 2 -69 -17 -24 -42
-14 -50 21 -6 21 -3 32 10 41 21 15 18 15 38 7z m-1086 -22 c3 -11 -47 -66
-55 -58 -2 2 4 20 14 40 16 35 33 42 41 18z m297 -12 c0 -27 -22 -39 -31 -16
-8 22 3 49 19 43 6 -2 12 -14 12 -27z m-1635 11 c0 -5 -7 -12 -16 -15 -24 -9
-28 -7 -14 9 14 17 30 20 30 6z m3327 -98 c44 -60 97 -133 117 -163 20 -30 48
-71 62 -90 21 -28 18 -27 -14 8 -23 24 -58 69 -78 100 -21 31 -63 91 -94 132
-55 72 -85 120 -77 120 3 0 40 -48 84 -107z m-1497 81 c0 -15 -130 -154 -144
-154 -15 0 18 42 64 82 32 28 50 51 50 66 0 13 6 22 15 22 8 0 15 -7 15 -16z
m-1310 -4 c0 -5 -4 -10 -10 -10 -5 0 -10 5 -10 10 0 6 5 10 10 10 6 0 10 -4
10 -10z m146 -28 c-18 -16 -19 -16 -12 1 3 10 6 24 6 30 0 8 4 7 12 -1 10 -9
8 -16 -6 -30z m-1321 -7 c0 -10 -6 -20 -12 -22 -8 -3 -13 5 -13 22 0 17 5 25
13 23 6 -3 12 -13 12 -23z m653 -13 c2 -13 -2 -29 -8 -37 -9 -11 -14 -11 -31
6 -22 22 -23 31 -7 47 19 19 43 10 46 -16z m480 8 c-7 -11 -16 -20 -21 -20 -4
0 -3 9 3 20 6 11 15 20 20 20 6 0 5 -9 -2 -20z m-268 -50 c-13 -10 -28 -16
-32 -14 -5 3 -20 -8 -34 -25 -14 -17 -33 -31 -41 -31 -8 0 11 26 43 60 53 53
60 58 74 44 13 -13 12 -17 -10 -34z m168 38 c-6 -18 -28 -21 -28 -4 0 9 7 16
16 16 9 0 14 -5 12 -12z m247 -7 c-3 -6 -11 -11 -17 -11 -6 0 -6 6 2 15 14 17
26 13 15 -4z m-115 5 c0 -2 -7 -9 -15 -16 -13 -11 -14 -10 -9 4 5 14 24 23 24
12z m800 -15 c0 -20 -26 -36 -35 -21 -8 13 6 40 21 40 8 0 14 -9 14 -19z
m-1513 -27 c-9 -9 -28 6 -21 18 4 6 10 6 17 -1 6 -6 8 -13 4 -17z m118 -14
c-10 -11 -20 -18 -23 -15 -7 6 18 35 31 35 5 0 2 -9 -8 -20z m-201 -9 c-5 -5
-20 -12 -33 -16 -30 -9 -19 13 13 25 24 9 34 4 20 -9z m386 11 c0 -13 -39 -46
-46 -39 -9 9 16 47 31 47 8 0 15 -4 15 -8z m210 -2 c0 -5 -12 -10 -27 -9 -25
0 -26 1 -8 9 27 12 35 12 35 0z m155 0 c-3 -5 -11 -10 -16 -10 -6 0 -7 5 -4
10 3 6 11 10 16 10 6 0 7 -4 4 -10z m-50 -10 c-3 -5 -12 -10 -20 -10 -8 0 -17
5 -20 10 -4 6 5 10 20 10 15 0 24 -4 20 -10z m175 -14 c0 -16 -18 -31 -27 -22
-8 8 5 36 17 36 5 0 10 -6 10 -14z m730 5 c0 -12 -20 -25 -27 -18 -7 7 6 27
18 27 5 0 9 -4 9 -9z m-1465 -10 c-6 -5 -21 -12 -35 -16 -22 -7 -23 -6 -11 9
7 9 23 16 34 16 13 0 17 -4 12 -9z m4151 -8 c-48 -172 -57 -193 -80 -193 -20
0 -23 4 -18 23 5 18 7 19 10 5 7 -36 18 -17 16 30 -1 26 2 54 7 62 8 11 8 10
4 -7 -3 -12 -2 -24 4 -27 5 -3 19 23 31 59 12 36 24 65 26 65 3 0 3 -8 0 -17z
m-4858 -30 c4 -26 -29 -47 -58 -38 -23 7 -25 18 -9 46 15 28 63 22 67 -8z
m320 -73 c88 -7 96 -10 128 -41 65 -63 63 -140 -6 -201 -42 -37 -106 -57 -150
-45 -18 5 -20 0 -20 -54 l0 -59 -42 6 c-24 4 -47 12 -51 18 -9 11 1 374 10
389 3 5 12 5 22 1 9 -3 58 -10 109 -14z m565 -27 c60 -42 77 -78 77 -168 0
-99 -29 -156 -93 -186 -157 -71 -314 72 -267 241 11 42 79 116 124 136 42 19
112 9 159 -23z m468 4 c15 -10 37 -37 49 -60 19 -36 22 -51 16 -91 -6 -40 -13
-51 -42 -68 -38 -22 -37 -26 18 -102 15 -21 28 -43 28 -48 0 -4 -19 -8 -43 -8
-41 0 -45 2 -83 58 -32 47 -45 58 -72 60 l-32 3 0 -55 0 -56 -38 0 -39 0 -6
113 c-4 61 -7 150 -7 197 l0 85 112 -5 c85 -4 120 -10 139 -23z m477 9 c2 -10
1 -33 -3 -52 -6 -33 -7 -34 -55 -34 l-50 0 0 -150 0 -150 -40 0 -40 0 0 88 c0
48 -3 118 -7 155 l-6 69 -52 -7 -53 -6 -4 38 c-3 21 -3 44 -1 50 4 9 45 13
141 16 176 4 166 5 170 -17z m229 -137 l-2 -152 92 2 c90 2 92 2 98 -22 4 -14
5 -36 3 -48 -3 -24 -3 -24 -143 -23 l-140 1 -3 197 -2 196 49 0 49 0 -1 -151z
m525 79 c20 -40 43 -98 53 -128 10 -30 31 -84 47 -118 15 -35 28 -65 28 -67 0
-2 -19 -5 -41 -7 -40 -4 -42 -2 -59 37 l-17 40 -79 -5 -78 -5 -9 -39 c-9 -36
-11 -38 -40 -32 -17 4 -36 11 -41 16 -11 11 41 175 79 250 13 25 28 64 34 88
11 40 13 42 50 42 38 0 39 -1 73 -72z m341 52 c13 -11 50 -55 81 -97 30 -43
65 -84 76 -91 20 -12 20 -10 20 98 l0 110 45 0 45 0 -2 -192 -3 -193 -46 -3
c-45 -3 -48 -1 -70 35 -12 21 -41 58 -63 83 -23 25 -49 56 -58 70 -16 24 -17
22 -17 -81 l-1 -106 -37 -6 c-20 -4 -39 -5 -41 -2 -2 2 -7 92 -10 199 l-5 196
30 0 c17 0 42 -9 56 -20z m675 -7 c96 -45 126 -185 62 -287 -36 -59 -81 -76
-206 -76 l-107 0 6 83 c4 45 7 133 7 196 l0 114 102 -7 c58 -4 117 -14 136
-23z m-3628 -18 c-7 -9 -15 -13 -18 -10 -3 2 1 11 8 20 7 9 15 13 18 10 3 -2
-1 -11 -8 -20z m4796 -116 c-9 -19 -15 -29 -16 -22 0 15 22 64 27 60 2 -2 -3
-19 -11 -38z m-37 -101 c-46 -119 -98 -218 -113 -218 -9 0 -16 3 -16 8 0 12
39 112 61 153 19 39 34 53 22 22 -14 -37 17 0 36 42 28 62 35 56 10 -7z m-499
-184 c0 -13 -21 -44 -30 -44 -11 0 -14 33 -3 43 8 8 33 9 33 1z m-2367 -31
c-7 -2 -19 -2 -25 0 -7 3 -2 5 12 5 14 0 19 -2 13 -5z m1131 -202 c122 -43
198 -109 248 -217 23 -50 30 -81 36 -165 5 -84 8 -96 13 -64 4 22 7 -35 6
-126 -2 -131 -5 -170 -17 -184 -11 -14 -11 -17 -1 -11 11 7 13 -30 10 -222
l-4 -230 -54 -107 c-80 -158 -135 -206 -279 -240 -155 -38 -352 17 -483 134
-36 32 -65 69 -80 103 -24 53 -24 54 -27 482 -3 468 3 567 41 643 46 91 169
187 277 218 76 21 234 14 314 -14z m2491 14 c150 -32 251 -109 315 -238 23
-48 31 -82 36 -147 l7 -85 -114 0 c-63 0 -130 -2 -149 -5 -34 -5 -34 -5 -42
40 -12 68 -26 94 -60 114 -61 36 -156 18 -183 -35 -9 -16 -15 -56 -15 -97 0
-85 13 -100 119 -150 318 -147 340 -162 397 -278 l37 -75 -1 -157 c0 -86 -5
-168 -10 -182 -7 -19 -9 -6 -7 50 2 41 1 59 -1 40 -8 -61 -46 -205 -56 -215
-7 -7 -9 0 -4 20 5 26 5 27 -5 10 -58 -99 -82 -125 -142 -154 -34 -17 -80 -32
-102 -35 -22 -3 -58 -8 -81 -11 -54 -9 -177 24 -259 71 -71 39 -152 120 -184
182 -16 32 -22 64 -24 125 l-2 82 141 6 c78 4 146 9 152 13 5 3 12 -16 15 -43
7 -58 21 -83 56 -104 48 -28 95 -31 145 -8 l46 20 0 123 0 123 -33 20 c-17 12
-75 40 -127 64 -52 24 -115 60 -140 80 -90 73 -172 155 -198 200 -25 43 -26
50 -27 210 0 155 2 169 24 211 51 98 168 185 287 214 77 19 104 19 189 1z
m-5982 -2 c3 -7 -28 -180 -62 -348 -67 -324 -84 -401 -88 -405 -6 -5 4 88 14
130 3 14 3 23 0 20 -12 -11 -37 -160 -41 -237 -1 -43 -8 -88 -15 -98 -8 -12
-11 -14 -8 -4 3 9 8 42 11 75 l6 59 -14 -65 c-8 -36 -14 -92 -15 -125 -1 -67
-28 -191 -30 -141 -2 54 -13 19 -17 -58 -3 -41 -11 -91 -19 -110 -8 -19 -18
-59 -21 -90 -4 -31 -10 -53 -15 -51 -13 9 -19 -11 -21 -72 l-1 -58 -164 -2
c-90 -1 -163 -1 -163 1 0 16 -87 463 -114 586 -18 85 -40 187 -47 225 l-14 70
-6 -75 c-4 -41 -10 -100 -13 -130 -4 -39 -3 -46 3 -25 8 29 9 29 9 -10 0 -22
-6 -62 -13 -90 -12 -49 -13 -49 -15 -15 -2 19 -6 -6 -10 -56 -4 -50 -26 -165
-48 -255 -22 -90 -43 -179 -47 -196 l-7 -33 -162 0 -162 0 -47 223 c-26 122
-58 276 -71 342 -84 417 -201 972 -211 998 -7 16 4 17 153 17 l160 0 11 -32
c6 -18 22 -100 36 -183 14 -82 36 -197 50 -255 13 -58 31 -148 40 -200 8 -52
20 -117 25 -143 6 -27 13 -80 16 -118 7 -73 24 -95 24 -31 0 44 32 232 53 317
9 33 25 112 37 175 12 63 35 183 51 265 15 83 30 161 31 175 3 25 3 25 124 28
l121 3 11 -43 c6 -24 20 -83 31 -133 11 -49 38 -171 60 -270 36 -162 45 -211
55 -295 2 -14 9 -38 16 -55 7 -16 15 -70 18 -118 2 -48 6 -86 8 -84 2 2 10 50
18 108 8 57 29 172 46 254 35 167 93 464 112 567 l12 67 120 4 c67 1 138 4
158 5 20 1 39 -1 41 -5z m414 -6 c1 -1 3 -162 6 -357 6 -414 -5 -1165 -13
-975 -6 117 -6 116 -8 -57 l-2 -178 -57 0 c-32 0 -103 -3 -157 -7 l-99 -6 7
319 c3 175 7 533 7 794 l1 475 157 -3 c86 -2 157 -5 158 -5z m3702 -29 c11
-24 26 -86 36 -138 9 -52 34 -178 55 -280 70 -339 84 -415 88 -477 4 -68 22
-88 22 -25 0 39 26 188 55 317 9 39 31 142 50 230 29 142 53 240 86 368 l10
38 121 -3 122 -3 13 -50 c7 -27 22 -106 33 -175 12 -69 38 -201 60 -295 42
-184 58 -279 67 -392 3 -40 10 -73 14 -73 5 0 9 13 9 28 0 28 25 169 54 312 9
41 36 179 61 305 25 127 52 255 59 285 l12 55 165 6 c90 4 166 5 168 3 2 -2
-8 -45 -22 -96 -35 -129 -53 -212 -76 -358 -27 -160 -48 -247 -51 -205 -1 27
-2 28 -10 9 -4 -11 -20 -88 -33 -170 -14 -82 -44 -222 -66 -310 -29 -121 -38
-170 -32 -195 5 -23 2 -60 -10 -109 -10 -41 -18 -87 -19 -102 0 -16 -4 -28
-10 -28 -5 0 -10 1 -10 3 0 1 7 40 15 87 8 47 15 92 14 100 0 25 -39 -133 -41
-167 l-1 -33 -164 0 -163 0 0 30 c0 16 -16 91 -35 167 -70 283 -114 470 -125
533 -19 115 -23 122 -32 50 -4 -36 -18 -121 -32 -190 -23 -125 -25 -154 -6
-109 8 20 9 17 4 -16 -10 -75 -57 -228 -75 -246 -15 -15 -37 -95 -38 -139 0
-8 -3 -28 -7 -44 -5 -19 -2 -31 7 -38 9 -6 -47 -8 -156 -5 l-170 4 -32 149
c-18 82 -53 237 -78 344 -25 107 -58 267 -74 355 -40 213 -128 608 -156 702
-7 22 -7 22 136 26 79 1 150 4 157 5 7 1 21 -17 31 -40z m-3111 -150 c133
-271 187 -386 259 -553 36 -82 66 -151 67 -152 3 -3 11 553 10 715 l-1 172
158 0 158 0 -5 -777 c-3 -428 -9 -781 -12 -784 -4 -4 -75 -10 -158 -14 l-152
-7 -41 78 c-45 86 -157 326 -258 554 -35 80 -71 156 -80 169 l-15 24 -15 -34
c-11 -26 -14 -75 -13 -204 1 -93 2 -179 3 -190 0 -11 0 -104 -1 -208 l-2 -188
-152 3 -153 3 0 787 0 788 157 0 157 0 89 -182z m1406 162 c43 -11 100 -32
127 -47 95 -51 167 -154 188 -268 13 -67 14 -309 3 -435 l-7 -85 -6 75 c-4 53
-5 31 -5 -75 -1 -95 2 -126 5 -85 5 51 7 28 13 -105 3 -93 3 -188 -2 -210 -6
-30 -8 -10 -11 85 l-2 125 -6 -157 c-4 -86 -10 -160 -14 -164 -4 -4 -7 0 -7 9
0 10 -4 17 -10 17 -5 0 -10 -12 -10 -27 0 -16 -5 -35 -10 -43 -8 -12 -10 -10
-10 10 -1 21 -4 19 -22 -18 -30 -63 -131 -125 -239 -147 -19 -4 -152 -10 -296
-12 l-263 -5 0 49 c-1 26 0 289 1 583 2 294 2 628 1 743 l-1 207 253 0 c219 0
263 -3 330 -20z m2195 -909 c-7 -49 -16 -88 -20 -85 -5 2 -6 10 -4 17 2 7 9
47 16 90 6 42 14 75 16 73 3 -3 -1 -45 -8 -95z m676 -23 c-27 -137 -59 -274
-65 -281 -8 -9 -1 31 37 201 14 61 28 112 30 112 3 0 2 -15 -2 -32z m-698
-100 c-3 -8 -6 -5 -6 6 -1 11 2 17 5 13 3 -3 4 -12 1 -19z m630 -230 c-3 -7
-5 -2 -5 12 0 14 2 19 5 13 2 -7 2 -19 0 -25z m-4934 -464 c57 -19 141 -107
158 -165 7 -21 10 -41 8 -43 -2 -2 -35 -6 -72 -9 l-68 -6 -16 34 c-25 51 -104
71 -153 39 -48 -32 -50 -40 -50 -192 0 -160 9 -187 70 -212 60 -25 140 19 140
77 0 28 18 29 83 6 43 -16 47 -20 47 -50 0 -60 -53 -129 -130 -169 -49 -25
-142 -24 -200 2 -128 59 -186 188 -178 399 3 87 7 106 31 147 73 126 208 184
330 142z m461 -309 l-6 -250 141 3 141 3 0 -60 c0 -98 17 -91 -225 -91 l-212
0 1 355 1 354 75 3 75 3 8 -35 c4 -19 4 -147 1 -285z m856 250 c0 -53 -4 -75
-12 -75 -25 0 -273 -13 -275 -14 -1 -1 -3 -28 -5 -61 l-3 -60 107 -3 108 -3
-7 -62 c-3 -34 -7 -64 -9 -66 -2 -2 -49 -6 -104 -9 l-100 -5 0 -68 0 -69 143
0 c79 0 146 -2 148 -4 2 -2 2 -37 -1 -76 l-5 -72 -215 2 c-118 0 -216 2 -218
4 -2 2 -4 162 -5 355 l-2 351 220 3 c121 1 223 3 228 5 4 1 7 -32 7 -73z m444
65 l41 0 38 -128 c21 -70 54 -170 72 -222 19 -52 44 -133 56 -180 12 -47 30
-104 41 -128 10 -24 18 -46 18 -48 0 -2 -35 -4 -78 -4 l-78 0 -22 75 -22 75
-116 0 -115 0 -14 -34 c-8 -19 -17 -52 -21 -75 l-7 -41 -73 0 c-57 0 -74 3
-74 14 0 22 96 296 162 461 33 83 64 166 70 185 17 63 16 63 49 56 18 -3 50
-6 73 -6z m1710 -154 c51 -78 106 -162 121 -188 37 -65 49 -62 40 12 -4 33 -4
121 0 195 l7 135 68 0 67 0 6 -142 c4 -79 7 -239 7 -355 l0 -213 -65 0 -65 0
-78 118 c-42 64 -99 157 -127 205 -27 47 -52 87 -55 87 -3 0 -4 -92 -2 -205
l3 -205 -75 0 -76 0 0 354 0 355 53 3 c28 2 58 -1 65 -6 7 -5 54 -72 106 -150z
m848 132 c52 -22 119 -88 145 -143 9 -19 15 -36 12 -38 -2 -3 -41 -7 -85 -10
l-82 -6 -12 29 c-24 58 -133 67 -177 15 -22 -25 -23 -35 -23 -176 0 -84 5
-159 10 -170 6 -10 24 -26 40 -34 74 -38 160 2 160 75 l0 39 -47 3 -48 3 0 55
0 55 123 3 122 3 0 -108 c0 -131 -17 -176 -82 -223 -68 -50 -105 -62 -178 -58
-121 6 -212 78 -246 194 -12 41 -15 89 -12 197 3 140 4 145 33 192 75 119 213
160 347 103z m-1944 -123 c56 -79 116 -174 134 -210 18 -36 36 -65 41 -65 5 0
7 95 5 210 l-3 210 75 0 75 0 2 -355 3 -355 -69 0 c-67 0 -70 1 -90 33 -11 17
-35 50 -52 72 -17 22 -65 96 -106 165 -42 69 -82 132 -90 140 -12 13 -13 -16
-7 -197 l7 -213 -76 0 -77 0 0 333 c0 182 -3 342 -6 355 -6 21 -4 22 63 22
l70 0 101 -145z m676 -112 c3 -142 9 -302 13 -355 l6 -98 -88 0 -87 0 3 355 4
355 71 0 71 0 7 -257z m-3596 179 c-1 -5 -14 -34 -28 -64 -24 -54 -27 -56 -66
-60 -22 -1 -289 -1 -592 2 -540 5 -551 5 -579 26 -37 28 -40 48 -9 79 l25 25
626 0 c345 0 625 -4 623 -8z m6539 -15 c30 -24 29 -37 -8 -73 l-30 -29 -332
-6 c-458 -8 -886 0 -912 16 -11 7 -33 36 -49 65 l-28 52 668 -3 c628 -4 669
-5 691 -22z m-6822 -227 l230 0 25 -57 c14 -31 26 -60 28 -63 1 -4 -267 -8
-598 -9 -658 -2 -617 -6 -665 59 -19 25 -22 37 -14 51 9 17 28 19 202 22 105
2 275 2 377 1 102 -2 289 -4 415 -4z m6799 -1 c4 -3 -46 -4 -111 -2 -65 2
-145 0 -178 -5 l-60 -10 53 -1 c48 -1 52 -3 52 -24 0 -13 -9 -32 -20 -42 -11
-10 -17 -22 -14 -26 3 -5 4 -10 2 -11 -2 -1 -236 -4 -520 -7 -457 -5 -517 -4
-514 9 2 8 10 38 16 67 7 33 18 53 28 55 30 6 1260 3 1266 -3z"/>
<path d="M4768 8613 c6 -2 18 -2 25 0 6 3 1 5 -13 5 -14 0 -19 -2 -12 -5z"/>
<path d="M4698 8603 c6 -2 18 -2 25 0 6 3 1 5 -13 5 -14 0 -19 -2 -12 -5z"/>
<path d="M4228 8503 c7 -3 16 -2 19 1 4 3 -2 6 -13 5 -11 0 -14 -3 -6 -6z"/>
<path d="M4110 8470 c-18 -12 -2 -12 25 0 13 6 15 9 5 9 -8 0 -22 -4 -30 -9z"/>
<path d="M4780 8310 c-14 -4 -19 -8 -12 -9 34 -3 -25 -39 -98 -60 -30 -9 -27
-10 25 -5 49 5 68 12 103 41 23 19 42 36 42 39 0 6 -32 3 -60 -6z"/>
<path d="M3159 7903 c-13 -16 -12 -17 4 -4 16 13 21 21 13 21 -2 0 -10 -8 -17
-17z"/>
<path d="M6607 7886 c-17 -13 -24 -46 -9 -46 7 0 34 51 29 56 -1 1 -10 -3 -20
-10z"/>
<path d="M3100 7850 c-14 -10 -22 -21 -19 -24 3 -3 16 5 29 19 28 30 24 32
-10 5z"/>
<path d="M3029 7783 c-68 -74 -83 -97 -31 -48 46 43 80 85 69 85 -1 0 -19 -17
-38 -37z"/>
<path d="M6444 7716 c3 -11 6 -24 6 -28 0 -5 5 -8 11 -8 6 0 8 9 4 20 -5 16
-3 19 11 13 12 -4 15 -2 12 8 -3 8 -15 15 -27 15 -18 1 -22 -3 -17 -20z"/>
<path d="M6346 7655 c-3 -8 0 -27 6 -41 9 -20 9 -27 -1 -34 -10 -5 -11 -13 -3
-26 9 -15 12 -14 27 17 10 19 25 39 33 45 9 7 12 18 8 32 -8 25 -26 30 -26 7
0 -8 -4 -15 -10 -15 -5 0 -10 -8 -10 -17 0 -14 -2 -15 -9 -4 -5 7 -6 22 -4 32
6 23 -2 26 -11 4z"/>
<path d="M2884 7608 l-19 -23 23 19 c21 18 27 26 19 26 -2 0 -12 -10 -23 -22z"/>
<path d="M6249 7463 c-8 -16 -22 -34 -31 -41 -22 -16 -23 -32 -3 -32 8 0 15 6
15 14 0 8 7 16 15 20 8 3 15 14 15 24 0 10 5 23 12 30 7 7 8 12 2 12 -6 0 -17
-12 -25 -27z"/>
<path d="M6149 7359 c-11 -11 -18 -23 -16 -26 7 -6 56 29 57 40 0 14 -20 7
-41 -14z"/>
<path d="M7181 7313 c-44 -51 -49 -63 -26 -63 8 0 12 6 10 13 -3 6 11 29 31
50 20 21 34 40 32 43 -3 2 -24 -17 -47 -43z"/>
<path d="M6105 7280 c-3 -5 -1 -10 4 -10 6 0 11 5 11 10 0 6 -2 10 -4 10 -3 0
-8 -4 -11 -10z"/>
<path d="M5181 7254 c0 -11 3 -14 6 -6 3 7 2 16 -1 19 -3 4 -6 -2 -5 -13z"/>
<path d="M6067 7243 c3 -7 9 -13 14 -13 5 0 9 6 9 13 0 8 -6 14 -14 14 -8 0
-12 -6 -9 -14z"/>
<path d="M7100 7220 c-18 -18 -27 -40 -16 -40 3 0 14 14 26 30 24 34 19 39
-10 10z"/>
<path d="M2615 7219 c-4 -6 -5 -12 -2 -15 2 -3 7 2 10 11 7 17 1 20 -8 4z"/>
<path d="M5980 7180 c0 -5 5 -10 11 -10 5 0 7 5 4 10 -3 6 -8 10 -11 10 -2 0
-4 -4 -4 -10z"/>
<path d="M7060 7135 c7 -9 15 -13 17 -11 7 7 -7 26 -19 26 -6 0 -6 -6 2 -15z"/>
<path d="M2566 7123 c-6 -14 -5 -15 5 -6 7 7 10 15 7 18 -3 3 -9 -2 -12 -12z"/>
<path d="M5951 7121 c-7 -5 -11 -15 -9 -22 3 -10 8 -7 17 9 13 24 12 26 -8 13z"/>
<path d="M7032 7118 c-15 -15 -15 -25 1 -31 7 -3 12 4 12 19 0 13 0 24 0 24
-1 0 -6 -5 -13 -12z"/>
<path d="M5788 6994 c-76 -69 -138 -129 -138 -135 0 -17 19 -9 25 10 3 11 15
23 26 26 10 4 19 13 19 21 0 8 6 14 14 14 8 0 39 25 70 55 30 30 62 55 70 55
8 0 18 9 21 20 3 11 10 20 15 20 4 0 10 9 13 20 3 11 4 20 4 20 -1 -1 -64 -57
-139 -126z"/>
<path d="M2541 7079 c-7 -12 -10 -23 -8 -26 3 -3 11 5 17 17 15 28 8 35 -9 9z"/>
<path d="M6700 7069 c0 -5 5 -7 10 -4 6 3 10 8 10 11 0 2 -4 4 -10 4 -5 0 -10
-5 -10 -11z"/>
<path d="M7186 7046 c10 -8 21 -12 24 -10 5 6 -21 24 -34 24 -6 0 -1 -6 10
-14z"/>
<path d="M6658 7036 c-10 -7 -15 -16 -12 -19 7 -7 44 14 44 25 0 12 -13 9 -32
-6z"/>
<path d="M6171 7002 c-7 -13 -11 -26 -8 -28 8 -8 29 25 25 38 -3 8 -9 4 -17
-10z"/>
<path d="M6595 7000 c-18 -20 -18 -20 3 -17 12 2 28 9 35 16 9 10 8 11 -7 5
-13 -5 -17 -4 -12 4 11 19 1 14 -19 -8z"/>
<path d="M5663 6998 c-13 -6 -23 -18 -23 -26 0 -12 6 -10 25 8 35 33 34 36 -2
18z"/>
<path d="M6520 6960 c-11 -9 -20 -21 -20 -25 0 -5 8 -1 18 8 9 8 28 17 42 19
24 3 24 4 3 10 -14 4 -30 0 -43 -12z"/>
<path d="M6810 6966 c0 -2 7 -9 15 -16 13 -11 14 -10 9 4 -5 14 -24 23 -24 12z"/>
<path d="M5600 6934 c0 -8 5 -12 10 -9 6 3 10 10 10 16 0 5 -4 9 -10 9 -5 0
-10 -7 -10 -16z"/>
<path d="M6737 6929 c7 -7 15 -10 18 -7 3 3 -2 9 -12 12 -14 6 -15 5 -6 -5z"/>
<path d="M6512 6913 c-6 -2 -10 -9 -7 -13 7 -11 35 -2 35 11 0 10 -8 10 -28 2z"/>
<path d="M6770 6909 c0 -5 5 -7 10 -4 6 3 10 8 10 11 0 2 -4 4 -10 4 -5 0 -10
-5 -10 -11z"/>
<path d="M4941 6838 c-8 -16 -17 -28 -20 -28 -3 0 -6 -26 -7 -57 0 -63 -21
-265 -30 -300 -3 -12 -12 -19 -19 -17 -7 3 -16 1 -20 -5 -3 -6 1 -11 9 -11 21
0 31 -43 16 -70 -7 -14 -8 -25 -3 -29 6 -3 12 -12 14 -19 3 -9 18 -1 48 25
l43 38 -9 250 c-8 223 -10 247 -22 223z m-11 -492 c0 -3 -4 -8 -10 -11 -5 -3
-10 -1 -10 4 0 6 5 11 10 11 6 0 10 -2 10 -4z"/>
<path d="M6405 6840 c3 -5 10 -10 16 -10 5 0 9 5 9 10 0 6 -7 10 -16 10 -8 0
-12 -4 -9 -10z"/>
<path d="M4735 6820 c-3 -5 1 -10 9 -10 9 0 16 5 16 10 0 6 -4 10 -9 10 -6 0
-13 -4 -16 -10z"/>
<path d="M6366 6805 c-3 -8 -1 -15 4 -15 6 0 10 7 10 15 0 8 -2 15 -4 15 -2 0
-6 -7 -10 -15z"/>
<path d="M4795 6790 c-10 -11 -16 -22 -13 -25 3 -3 13 4 23 15 10 11 16 22 13
25 -3 3 -13 -4 -23 -15z"/>
<path d="M5617 6786 c-27 -23 -36 -46 -17 -46 6 0 10 5 10 11 0 7 10 20 22 30
11 11 19 21 17 24 -3 2 -17 -6 -32 -19z"/>
<path d="M4695 6780 c-10 -11 -15 -20 -11 -20 11 0 39 30 34 36 -3 2 -13 -5
-23 -16z"/>
<path d="M6420 6790 c0 -5 5 -10 10 -10 6 0 10 5 10 10 0 6 -4 10 -10 10 -5 0
-10 -4 -10 -10z"/>
<path d="M6456 6755 c4 -8 1 -21 -5 -29 -6 -7 -8 -16 -5 -19 10 -9 42 36 37
50 -3 7 -11 13 -19 13 -8 0 -11 -6 -8 -15z"/>
<path d="M5183 6720 c0 -25 2 -35 4 -22 2 12 2 32 0 45 -2 12 -4 2 -4 -23z"/>
<path d="M4715 6717 c-43 -48 -47 -60 -7 -22 23 21 42 40 42 42 0 10 -18 0
-35 -20z"/>
<path d="M5560 6730 c0 -5 -7 -10 -15 -10 -8 0 -15 -4 -15 -10 0 -14 23 -13
38 2 15 15 16 28 2 28 -5 0 -10 -4 -10 -10z"/>
<path d="M3965 6710 c-3 -5 -2 -10 4 -10 5 0 13 5 16 10 3 6 2 10 -4 10 -5 0
-13 -4 -16 -10z"/>
<path d="M6400 6710 c0 -5 7 -10 16 -10 8 0 12 5 9 10 -3 6 -10 10 -16 10 -5
0 -9 -4 -9 -10z"/>
<path d="M4603 6690 c-11 -16 -10 -18 2 -14 8 4 15 12 15 20 0 19 -3 18 -17
-6z"/>
<path d="M5486 6694 c-5 -14 -4 -15 9 -4 17 14 19 20 6 20 -5 0 -12 -7 -15
-16z"/>
<path d="M5505 6680 c-3 -5 -1 -10 4 -10 6 0 11 5 11 10 0 6 -2 10 -4 10 -3 0
-8 -4 -11 -10z"/>
<path d="M6448 6683 c7 -3 16 -2 19 1 4 3 -2 6 -13 5 -11 0 -14 -3 -6 -6z"/>
<path d="M3927 6673 c-4 -3 -7 -11 -7 -17 0 -6 5 -5 12 2 6 6 9 14 7 17 -3 3
-9 2 -12 -2z"/>
<path d="M5450 6673 c-8 -3 -17 -9 -20 -12 -14 -17 -100 -81 -108 -81 -13 0
-112 -90 -112 -102 0 -5 7 -2 16 7 21 20 29 13 15 -13 -13 -25 -15 -179 -2
-186 10 -7 81 71 81 88 0 6 9 28 20 49 11 20 20 43 19 49 0 7 -5 3 -11 -9 -6
-13 -15 -23 -20 -23 -13 0 -10 16 6 29 13 11 31 57 28 72 -1 4 7 5 16 2 12 -3
23 5 32 21 7 14 17 26 21 26 10 0 69 53 69 62 0 11 -33 -3 -47 -20 -19 -23
-16 -6 3 23 9 14 15 25 13 24 -2 0 -11 -3 -19 -6z m-140 -252 c0 -5 -7 -11
-15 -15 -15 -5 -20 5 -8 17 9 10 23 9 23 -2z m-6 -46 c-6 -16 -24 -21 -24 -7
0 11 11 22 21 22 5 0 6 -7 3 -15z"/>
<path d="M6260 6659 c0 -5 5 -7 10 -4 6 3 10 8 10 11 0 2 -4 4 -10 4 -5 0 -10
-5 -10 -11z"/>
<path d="M6400 6660 c0 -5 5 -10 10 -10 6 0 10 5 10 10 0 6 -4 10 -10 10 -5 0
-10 -4 -10 -10z"/>
<path d="M4629 6623 l-24 -28 28 24 c25 23 32 31 24 31 -2 0 -14 -12 -28 -27z"/>
<path d="M3880 6624 c0 -14 3 -14 15 -4 8 7 15 14 15 16 0 2 -7 4 -15 4 -8 0
-15 -7 -15 -16z"/>
<path d="M5178 6590 c-1 -28 0 -50 5 -50 4 0 7 23 7 50 0 65 -7 65 -12 0z"/>
<path d="M6346 6615 c4 -8 10 -12 15 -9 14 8 10 24 -6 24 -9 0 -12 -6 -9 -15z"/>
<path d="M4530 6610 c0 -5 5 -10 10 -10 6 0 10 5 10 10 0 6 -4 10 -10 10 -5 0
-10 -4 -10 -10z"/>
<path d="M6180 6604 c0 -8 5 -12 10 -9 6 4 8 11 5 16 -9 14 -15 11 -15 -7z"/>
<path d="M8090 6612 c0 -6 5 -14 10 -17 6 -4 7 -11 4 -17 -4 -7 -2 -8 5 -4 9
6 9 12 -1 24 -7 10 -14 19 -15 21 -2 2 -3 -1 -3 -7z"/>
<path d="M3398 6593 c12 -2 32 -2 45 0 12 2 2 4 -23 4 -25 0 -35 -2 -22 -4z"/>
<path d="M6207 6573 c-4 -3 -7 -11 -7 -17 0 -6 5 -5 12 2 6 6 9 14 7 17 -3 3
-9 2 -12 -2z"/>
<path d="M4540 6545 c-13 -14 -21 -25 -18 -25 10 0 51 40 46 45 -2 3 -15 -6
-28 -20z"/>
<path d="M6178 6559 c-3 -9 -2 -22 2 -30 13 -19 18 -8 10 21 -4 19 -7 21 -12
9z"/>
<path d="M8112 6530 c0 -14 2 -19 5 -12 2 6 2 18 0 25 -3 6 -5 1 -5 -13z"/>
<path d="M6088 6531 c-5 -13 -48 -24 -48 -12 0 6 -7 11 -15 11 -18 0 -19 -12
-3 -28 8 -8 17 -8 30 -1 26 14 35 3 20 -21 -10 -16 -9 -18 3 -14 8 4 16 12 16
20 2 23 4 28 12 42 5 6 4 12 -2 12 -5 0 -11 -4 -13 -9z"/>
<path d="M4486 6498 c3 -5 10 -6 15 -3 13 9 11 12 -6 12 -8 0 -12 -4 -9 -9z"/>
<path d="M5365 6501 c-3 -5 -1 -12 4 -15 5 -3 11 1 15 9 6 16 -9 21 -19 6z"/>
<path d="M6170 6489 c0 -5 5 -7 10 -4 6 3 10 8 10 11 0 2 -4 4 -10 4 -5 0 -10
-5 -10 -11z"/>
<path d="M8126 6465 c12 -67 25 -96 18 -40 -3 28 -10 57 -15 65 -6 10 -7 1 -3
-25z"/>
<path d="M6108 6443 c7 -3 16 -2 19 1 4 3 -2 6 -13 5 -11 0 -14 -3 -6 -6z"/>
<path d="M4400 6427 c11 -15 10 -20 -6 -31 -16 -12 -22 -12 -38 0 -22 15 -52
19 -58 7 -1 -5 -77 -78 -168 -163 -90 -85 -198 -190 -238 -232 -74 -78 -122
-110 -63 -43 30 35 41 75 21 75 -5 0 -10 10 -10 23 1 20 2 20 11 5 5 -10 17
-18 24 -18 20 0 19 29 0 36 -8 4 -15 12 -15 20 0 26 -48 21 -68 -7 -7 -10 -21
-19 -30 -19 -16 0 -5 10 94 98 18 15 40 26 50 25 11 -1 13 0 6 3 -10 5 -10 9
-1 20 6 8 8 14 4 14 -9 0 -112 -91 -234 -206 -57 -54 -110 -95 -131 -102 -19
-6 -91 -16 -160 -22 -69 -6 -127 -13 -129 -16 -2 -2 76 -5 175 -5 98 -1 237
-3 308 -5 140 -3 154 0 195 50 30 36 17 24 280 279 194 189 203 199 185 215
-17 16 -17 16 -4 -1z m-80 -47 c0 -5 -5 -10 -11 -10 -5 0 -7 5 -4 10 3 6 8 10
11 10 2 0 4 -4 4 -10z m15 -40 c-21 -21 -43 -36 -49 -33 -6 3 -8 2 -3 -2 8
-10 -41 -65 -57 -65 -6 0 -3 5 7 11 9 6 15 14 12 19 -3 4 2 11 11 14 8 3 12
10 9 16 -3 5 4 14 17 19 13 5 34 21 47 35 14 14 29 26 35 26 5 0 -7 -18 -29
-40z m-585 -280 c0 -5 -5 -10 -11 -10 -5 0 -7 5 -4 10 3 6 8 10 11 10 2 0 4
-4 4 -10z m50 -150 c0 -5 -5 -10 -11 -10 -5 0 -7 5 -4 10 3 6 8 10 11 10 2 0
4 -4 4 -10z"/>
<path d="M5203 6375 c0 -38 2 -53 4 -32 2 20 2 52 0 70 -2 17 -4 1 -4 -38z"/>
<path d="M3156 6395 c8 -50 14 -58 14 -19 0 16 -5 36 -11 44 -7 11 -8 4 -3
-25z"/>
<path d="M4775 6399 c-9 -14 4 -27 13 -13 4 6 14 14 22 17 10 4 8 6 -7 6 -12
1 -25 -4 -28 -10z"/>
<path d="M5960 6386 c-14 -38 -13 -39 11 -15 15 15 18 24 10 32 -7 7 -13 2
-21 -17z"/>
<path d="M4024 6358 l-29 -33 33 29 c30 28 37 36 29 36 -2 0 -16 -15 -33 -32z"/>
<path d="M4812 6375 c-11 -12 -10 -15 2 -15 8 0 16 -6 19 -12 4 -10 7 -10 17
-1 11 10 11 15 0 28 -15 18 -21 18 -38 0z"/>
<path d="M4709 6338 c-29 -42 -49 -62 -72 -71 -10 -4 -15 -11 -12 -17 7 -12
30 -1 61 29 l22 20 5 -21 c3 -11 1 -32 -4 -46 -7 -17 -6 -29 1 -36 7 -7 10 -6
12 5 0 7 2 19 2 25 2 15 81 94 94 94 7 0 12 -14 12 -32 0 -23 3 -29 11 -21 13
13 4 46 -17 68 -17 16 -39 21 -30 6 3 -5 -5 -11 -19 -13 -22 -5 -24 -2 -19 18
9 36 -20 31 -47 -8z"/>
<path d="M8150 6359 c0 -8 7 -52 14 -99 13 -80 25 -218 45 -520 l8 -125 1 115
c2 137 -22 429 -44 549 -15 81 -24 112 -24 80z"/>
<path d="M3172 6315 c0 -16 2 -22 5 -12 2 9 2 23 0 30 -3 6 -5 -1 -5 -18z"/>
<path d="M3970 6305 c-8 -9 -8 -15 -2 -15 12 0 26 19 19 26 -2 2 -10 -2 -17
-11z"/>
<path d="M5867 6313 c-4 -3 -7 -11 -7 -17 0 -6 5 -5 12 2 6 6 9 14 7 17 -3 3
-9 2 -12 -2z"/>
<path d="M4902 6241 c-106 -122 -103 -117 -87 -131 13 -11 14 -10 9 6 -6 16
-5 17 7 7 21 -20 29 -15 29 16 0 24 3 28 20 24 11 -3 20 -12 20 -20 0 -13 3
-13 15 -3 21 17 19 41 -2 34 -15 -5 -16 -4 -3 5 11 8 18 7 26 -4 19 -25 22
-18 23 55 0 39 -1 70 -3 70 -1 0 -26 -26 -54 -59z"/>
<path d="M3169 6258 c-2 -13 -1 -45 2 -73 6 -47 6 -46 7 23 2 71 -2 93 -9 50z"/>
<path d="M3930 6265 c-8 -9 -8 -15 -2 -15 12 0 26 19 19 26 -2 2 -10 -2 -17
-11z"/>
<path d="M4798 6256 c-10 -7 -14 -17 -10 -21 4 -5 0 -6 -8 -3 -10 4 -20 -3
-27 -18 -10 -21 -9 -22 6 -15 21 12 66 60 60 65 -2 2 -12 -1 -21 -8z"/>
<path d="M5840 6249 c0 -5 5 -7 10 -4 6 3 10 8 10 11 0 2 -4 4 -10 4 -5 0 -10
-5 -10 -11z"/>
<path d="M2255 6137 c-4 -64 -5 -121 -3 -129 3 -7 8 43 12 111 4 67 5 125 3
128 -3 2 -8 -47 -12 -110z"/>
<path d="M4650 6221 c0 -25 -37 -34 -49 -13 -8 14 -22 5 -86 -53 -42 -37 -104
-99 -138 -136 l-60 -68 -97 3 c-116 3 -130 9 -99 42 38 40 13 27 -47 -26 -31
-28 -76 -56 -98 -63 -36 -10 -10 -12 199 -15 132 -1 251 0 265 3 13 4 70 52
126 107 106 104 115 122 72 152 -16 12 -17 14 -3 20 9 3 18 -1 21 -9 10 -26
25 -16 20 13 -2 15 -5 35 -5 45 -1 23 -21 22 -21 -2z m-10 -99 c0 -26 -15 -52
-30 -52 -8 0 -4 55 5 69 12 20 25 11 25 -17z m-61 -85 c-13 -10 -43 -36 -67
-58 -47 -43 -72 -50 -72 -20 0 15 6 19 28 18 24 -2 27 1 25 25 -1 22 3 29 23
34 14 4 28 4 31 0 3 -3 13 3 20 14 8 11 19 17 25 14 7 -5 2 -14 -13 -27z
m-219 -131 c-15 -15 -34 9 -26 31 7 17 8 17 22 -1 9 -13 11 -23 4 -30z"/>
<path d="M5192 6165 c0 -16 2 -22 5 -12 2 9 2 23 0 30 -3 6 -5 -1 -5 -18z"/>
<path d="M3871 6171 c-10 -6 -10 -10 -1 -16 7 -4 17 -20 24 -36 12 -28 12 -28
29 -9 9 11 12 20 7 20 -6 0 -10 7 -10 15 0 8 -6 15 -14 15 -8 0 -16 4 -18 10
-2 5 -9 6 -17 1z"/>
<path d="M4937 6127 c-11 -29 -9 -43 4 -30 6 6 9 19 7 29 -3 18 -4 18 -11 1z"/>
<path d="M5564 6129 c-9 -15 1 -21 26 -17 21 3 21 3 1 15 -14 9 -22 9 -27 2z"/>
<path d="M5190 6093 c0 -29 12 -24 17 7 2 11 -2 20 -7 20 -6 0 -10 -12 -10
-27z"/>
<path d="M4770 6095 c-7 -8 -8 -15 -2 -15 5 0 15 7 22 15 7 8 8 15 2 15 -5 0
-15 -7 -22 -15z"/>
<path d="M5275 6075 c-16 -7 -23 -14 -15 -14 17 -1 -36 -51 -53 -51 -6 0 -8
-2 -5 -5 10 -10 67 17 73 36 4 10 10 19 15 19 4 0 10 7 14 15 3 8 4 15 3 15
-1 -1 -15 -7 -32 -15z"/>
<path d="M4718 6048 c-26 -32 -22 -41 7 -16 25 21 32 38 18 38 -5 0 -16 -10
-25 -22z"/>
<path d="M4159 6043 c-13 -16 -12 -17 4 -4 16 13 21 21 13 21 -2 0 -10 -8 -17
-17z"/>
<path d="M4908 6008 c-19 -24 -40 -52 -45 -63 -6 -10 -26 -24 -45 -31 -32 -11
-31 -11 41 -18 40 -4 79 -10 87 -13 11 -4 14 11 12 81 -1 47 -5 86 -9 86 -3 0
-22 -19 -41 -42z"/>
<path d="M4669 5975 c-1 -18 -3 -23 -6 -12 -6 24 -21 21 -25 -5 -2 -13 -10
-23 -18 -23 -8 0 -21 -6 -29 -13 -7 -7 -20 -11 -27 -8 -7 3 -16 1 -19 -4 -8
-13 66 -13 99 0 33 12 48 42 37 72 -9 22 -10 22 -12 -7z"/>
<path d="M5335 5919 c-9 -14 -2 -20 14 -10 8 6 9 11 3 15 -6 3 -14 1 -17 -5z"/>
<path d="M2244 5765 c0 -66 1 -92 3 -57 2 34 2 88 0 120 -2 31 -3 3 -3 -63z"/>
<path d="M3990 5689 c-37 -5 -18 -6 57 -3 108 4 112 4 108 -16 -2 -12 2 -20 9
-20 17 0 51 38 43 47 -4 3 -7 0 -7 -7 0 -11 -3 -11 -12 -2 -13 13 -107 14
-198 1z"/>
<path d="M3481 5686 c9 -9 179 -14 174 -5 -4 5 -45 9 -92 9 -48 0 -84 -2 -82
-4z"/>
<path d="M3808 5683 c6 -2 18 -2 25 0 6 3 1 5 -13 5 -14 0 -19 -2 -12 -5z"/>
<path d="M3868 5683 c12 -2 30 -2 40 0 9 3 -1 5 -23 4 -22 0 -30 -2 -17 -4z"/>
<path d="M4740 5669 c0 -5 5 -7 10 -4 6 3 10 8 10 11 0 2 -4 4 -10 4 -5 0 -10
-5 -10 -11z"/>
<path d="M4092 5649 c-8 -12 -9 -18 -4 -15 6 3 12 0 15 -6 2 -7 4 -1 4 15 0
15 0 27 -1 27 -1 0 -7 -9 -14 -21z"/>
<path d="M4123 5637 c0 -8 6 -14 14 -14 15 0 12 19 -3 24 -6 2 -11 -3 -11 -10z"/>
<path d="M4950 5610 c0 -5 -9 -10 -19 -10 -11 0 -23 -4 -26 -10 -3 -5 -14 -10
-25 -10 -15 0 -27 -14 -35 -42 -2 -5 -4 -11 -5 -15 -1 -5 -2 -11 -1 -15 0 -4
-6 -5 -14 -2 -10 4 -15 0 -15 -11 0 -9 5 -13 10 -10 6 3 10 0 10 -7 0 -7 9 -2
20 12 11 14 20 19 20 12 0 -14 8 -9 56 35 24 22 35 18 12 -5 -6 -6 -9 -14 -6
-17 3 -3 15 10 27 29 18 28 20 39 11 56 -12 22 -20 26 -20 10z"/>
<path d="M4785 5599 c-4 -5 -15 -9 -25 -9 -21 0 -80 -57 -80 -77 0 -7 -6 -13
-13 -13 -17 0 -49 -39 -42 -50 3 -6 -1 -7 -9 -4 -11 4 -16 0 -16 -10 0 -9 -12
-21 -27 -27 -19 -7 -23 -13 -15 -21 13 -13 46 -2 37 12 -3 5 4 14 17 19 13 5
31 19 40 30 10 12 25 21 33 21 9 0 13 5 10 10 -3 6 -1 10 5 10 7 0 9 8 5 19
-3 11 -1 22 4 26 7 3 8 0 5 -9 -3 -9 -2 -16 4 -16 6 0 12 5 14 11 2 5 15 12
28 13 21 2 90 55 90 68 0 9 -60 6 -65 -3z"/>
<path d="M4210 5480 c-14 -10 -23 -21 -20 -23 3 -3 19 6 35 19 35 28 22 32
-15 4z"/>
<path d="M4073 5453 c-23 -8 -14 -33 12 -33 14 0 25 4 25 9 0 14 -24 29 -37
24z"/>
<path d="M4742 5425 c-9 -20 -9 -23 3 -18 8 3 15 14 15 24 0 25 -5 24 -18 -6z"/>
<path d="M4022 5393 c2 -11 -2 -17 -11 -15 -17 4 -31 -16 -24 -34 3 -9 10 -7
24 7 10 10 28 19 38 19 25 0 38 20 20 31 -24 15 -50 10 -47 -8z"/>
<path d="M4510 5355 c-13 -14 -29 -25 -37 -25 -7 0 -12 -3 -12 -7 4 -24 -3
-35 -17 -29 -13 5 -15 2 -11 -15 3 -11 3 -18 0 -15 -4 3 -26 -10 -50 -30 -23
-19 -47 -32 -53 -29 -5 3 -10 1 -10 -4 0 -6 5 -11 11 -11 6 0 9 -6 6 -14 -6
-15 32 -56 51 -56 7 0 12 7 12 15 0 8 -7 15 -16 15 -21 0 -14 30 11 44 11 6
25 18 32 26 11 13 12 13 13 -2 0 -10 -4 -18 -10 -18 -16 0 -12 -19 10 -42 11
-12 20 -17 20 -12 0 6 -5 15 -11 21 -18 18 9 82 33 75 21 -5 23 1 6 27 -9 15
-9 23 1 35 7 9 18 13 23 10 6 -4 8 2 3 15 -3 12 -3 21 2 20 24 -4 43 3 43 16
0 23 -24 18 -50 -10z"/>
<path d="M4180 5345 c-7 -8 -19 -15 -26 -15 -8 0 -14 -7 -14 -15 0 -14 3 -14
28 -1 15 8 36 21 47 30 20 15 20 15 -1 16 -12 0 -27 -7 -34 -15z"/>
<path d="M4003 5295 c-9 -24 1 -27 15 -5 8 13 8 20 2 20 -6 0 -13 -7 -17 -15z"/>
<path d="M4530 5295 c0 -8 2 -15 4 -15 2 0 6 7 10 15 3 8 1 15 -4 15 -6 0 -10
-7 -10 -15z"/>
<path d="M4110 5274 c0 -8 5 -12 10 -9 6 3 10 10 10 16 0 5 -4 9 -10 9 -5 0
-10 -7 -10 -16z"/>
<path d="M4070 5250 c0 -13 18 -22 24 -11 3 5 -1 11 -9 15 -8 3 -15 1 -15 -4z"/>
<path d="M4475 5200 c-3 -5 -2 -10 4 -10 5 0 13 5 16 10 3 6 2 10 -4 10 -5 0
-13 -4 -16 -10z"/>
<path d="M3851 5144 c0 -11 3 -14 6 -6 3 7 2 16 -1 19 -3 4 -6 -2 -5 -13z"/>
<path d="M3900 5149 c0 -5 5 -7 10 -4 6 3 10 8 10 11 0 2 -4 4 -10 4 -5 0 -10
-5 -10 -11z"/>
<path d="M4427 5133 c-4 -3 -7 -11 -7 -17 0 -6 5 -5 12 2 6 6 9 14 7 17 -3 3
-9 2 -12 -2z"/>
<path d="M3860 5110 c0 -5 5 -10 10 -10 6 0 10 5 10 10 0 6 -4 10 -10 10 -5 0
-10 -4 -10 -10z"/>
<path d="M4386 5078 c-16 -22 -15 -35 2 -24 9 5 24 46 17 46 -2 0 -11 -10 -19
-22z"/>
<path d="M3777 5083 c-4 -3 -7 -11 -7 -17 0 -6 5 -5 12 2 6 6 9 14 7 17 -3 3
-9 2 -12 -2z"/>
<path d="M6825 7269 c-10 -15 3 -25 16 -12 7 7 7 13 1 17 -6 3 -14 1 -17 -5z"/>
<path d="M7628 5683 c17 -2 47 -2 65 0 17 2 3 4 -33 4 -36 0 -50 -2 -32 -4z"/>
<path d="M3125 5130 c-3 -5 1 -10 10 -10 9 0 13 5 10 10 -3 6 -8 10 -10 10 -2
0 -7 -4 -10 -10z"/>
<path d="M8180 5205 c0 -8 5 -15 10 -15 6 0 10 7 10 15 0 8 -4 15 -10 15 -5 0
-10 -7 -10 -15z"/>
<path d="M8170 5150 c0 -5 5 -10 10 -10 6 0 10 5 10 10 0 6 -4 10 -10 10 -5 0
-10 -4 -10 -10z"/>
<path d="M3567 4703 c-4 -3 -7 -28 -7 -55 l0 -48 53 0 c40 0 58 5 70 18 20 22
22 63 5 80 -13 13 -110 17 -121 5z"/>
<path d="M4018 4694 c-18 -9 -32 -28 -39 -54 -23 -75 15 -134 93 -146 30 -5
41 -2 62 19 23 23 26 35 26 91 0 58 -3 67 -26 85 -31 24 -77 26 -116 5z"/>
<path d="M4480 4657 l0 -54 58 5 c65 5 82 15 82 47 0 36 -31 55 -88 55 l-52 0
0 -53z"/>
<path d="M5791 4639 c-7 -22 -15 -47 -18 -54 -3 -9 7 -16 32 -21 20 -3 38 -4
42 -1 5 6 -25 95 -37 110 -4 4 -12 -11 -19 -34z"/>
<path d="M6736 4699 c-3 -8 -2 -57 2 -109 7 -89 9 -95 30 -98 61 -9 132 47
132 105 0 33 -20 71 -46 88 -35 22 -112 31 -118 14z"/>
<path d="M7946 4435 c-9 -26 -7 -32 5 -12 6 10 9 21 6 23 -2 3 -7 -2 -11 -11z"/>
<path d="M6049 3870 c-40 -12 -75 -38 -87 -66 -18 -38 -15 -37 24 5 19 22 54
46 77 55 43 15 32 20 -14 6z"/>
<path d="M6190 3855 c0 -2 10 -10 23 -16 20 -11 21 -11 8 4 -13 16 -31 23 -31
12z"/>
<path d="M6066 3841 c-23 -5 -49 -19 -62 -34 -22 -25 -22 -30 -26 -459 -3
-297 -1 -437 6 -447 18 -23 88 -51 129 -51 45 0 95 20 120 48 18 19 19 48 19
441 0 372 -2 424 -16 446 -34 52 -93 71 -170 56z"/>
<path d="M6560 3456 c0 -22 3 -27 11 -19 8 8 8 16 0 30 -9 16 -10 14 -11 -11z"/>
<path d="M6300 3339 c0 -5 5 -7 10 -4 6 3 10 8 10 11 0 2 -4 4 -10 4 -5 0 -10
-5 -10 -11z"/>
<path d="M8711 3856 c12 -10 60 -16 54 -6 -3 5 -18 10 -32 10 -15 0 -24 -2
-22 -4z"/>
<path d="M8594 3828 l-19 -23 23 19 c12 11 22 21 22 23 0 8 -8 2 -26 -19z"/>
<path d="M8559 3773 c-5 -14 -8 -30 -6 -36 1 -5 8 7 14 27 13 42 7 49 -8 9z"/>
<path d="M2715 3848 c-21 -123 -29 -185 -22 -178 7 7 50 270 45 276 -3 2 -13
-42 -23 -98z"/>
<path d="M1922 3150 c0 -14 2 -19 5 -12 2 6 2 18 0 25 -3 6 -5 1 -5 -13z"/>
<path d="M1821 2724 c-7 -30 -11 -57 -8 -60 2 -2 9 21 16 52 7 30 11 57 8 60
-2 2 -9 -21 -16 -52z"/>
<path d="M3740 4005 c0 -5 5 -17 10 -25 5 -8 10 -10 10 -5 0 6 -5 17 -10 25
-5 8 -10 11 -10 5z"/>
<path d="M3790 3891 c0 -6 4 -13 10 -16 6 -3 7 1 4 9 -7 18 -14 21 -14 7z"/>
<path d="M4418 3363 c-2 -76 0 -145 4 -153 4 -8 8 54 8 138 0 83 -2 152 -4
152 -3 0 -6 -62 -8 -137z"/>
<path d="M4006 3457 c3 -10 9 -15 12 -12 3 3 0 11 -7 18 -10 9 -11 8 -5 -6z"/>
<path d="M3681 3415 c0 -42 2 -46 11 -28 7 15 7 30 0 50 -10 26 -10 24 -11
-22z"/>
<path d="M3674 2650 c0 -52 1 -74 3 -47 2 26 2 68 0 95 -2 26 -3 4 -3 -48z"/>
<path d="M4920 3840 c0 -11 2 -20 4 -20 2 0 6 9 9 20 3 11 1 20 -4 20 -5 0 -9
-9 -9 -20z"/>
<path d="M4950 3843 c-2 -32 3 -464 6 -573 3 -128 -7 -306 -22 -377 l-6 -33
91 0 c108 0 153 15 176 60 14 27 16 78 13 433 -2 221 -7 410 -12 420 -17 35
-87 64 -168 71 -43 4 -78 3 -78 -1z"/>
<path d="M4923 3375 c0 -22 2 -30 4 -17 2 12 2 30 0 40 -3 9 -5 -1 -4 -23z"/>
<path d="M5240 2605 c-14 -8 -20 -14 -15 -14 6 0 21 6 35 14 14 8 21 14 15 14
-5 0 -21 -6 -35 -14z"/>
<path d="M4791 2152 c-1 -8 -17 -50 -36 -93 -19 -44 -35 -87 -35 -94 0 -12 15
-15 70 -15 60 0 70 2 69 18 0 22 -67 202 -68 184z"/>
<path d="M8841 2296 c3 -2 91 -11 176 -16 1 0 0 -7 -3 -15 -9 -23 15 -48 33
-34 11 10 11 14 1 20 -10 7 -10 11 0 21 9 9 12 9 12 -2 0 -7 2 -11 5 -8 3 3 3
13 -1 22 -5 13 -23 16 -117 16 -61 0 -108 -2 -106 -4z"/>
<path d="M7808 2053 c6 -2 18 -2 25 0 6 3 1 5 -13 5 -14 0 -19 -2 -12 -5z"/>
</g>
</svg>
